<mxfile host="Electron" modified="2024-05-31T13:16:48.028Z" agent="Mozilla/5.0 (X11; Linux x86_64) AppleWebKit/537.36 (KHTML, like Gecko) draw.io/24.4.8 Chrome/124.0.6367.207 Electron/30.0.6 Safari/537.36" etag="Syw6kuIJx0KhxihECutH" version="24.4.8" type="device">
  <diagram name="Page-1" id="KZN-zyBD-0XipZeYQRDT">
    <mxGraphModel dx="585" dy="339" grid="1" gridSize="10" guides="1" tooltips="1" connect="1" arrows="1" fold="1" page="1" pageScale="1" pageWidth="500" pageHeight="200" math="0" shadow="0">
      <root>
        <mxCell id="0" />
        <mxCell id="1" parent="0" />
        <mxCell id="y5vkwGOPZt_xuMyuW4bd-235" value="" style="group" vertex="1" connectable="0" parent="1">
          <mxGeometry x="9" y="78" width="482.6" height="44.45" as="geometry" />
        </mxCell>
        <mxCell id="9eh16xiQdjSHdPkHuFP6-378" value="" style="rounded=0;whiteSpace=wrap;html=1;strokeColor=#aaaaaa;fillColor=#bfbfbf;strokeWidth=1;container=0;part=1;movable=1;resizable=1;rotatable=1;deletable=1;editable=1;locked=0;connectable=1;" parent="y5vkwGOPZt_xuMyuW4bd-235" vertex="1">
          <mxGeometry width="482.6" height="44.45" as="geometry" />
        </mxCell>
        <mxCell id="9eh16xiQdjSHdPkHuFP6-379" value="" style="rounded=0;whiteSpace=wrap;html=1;strokeColor=#aaaaaa;fillColor=#222222;strokeWidth=1;movable=1;resizable=1;rotatable=1;deletable=1;editable=1;locked=0;connectable=1;container=0;" parent="y5vkwGOPZt_xuMyuW4bd-235" vertex="1">
          <mxGeometry x="18" width="446.6" height="44.45" as="geometry" />
        </mxCell>
        <mxCell id="jP2WbbBxQBNUkDRbYnSl-231" value="" style="rounded=0;whiteSpace=wrap;html=1;fillColor=#000000;fontColor=#ffffff;strokeColor=none;container=0;" parent="y5vkwGOPZt_xuMyuW4bd-235" vertex="1">
          <mxGeometry x="7" y="19.224999999999994" width="4" height="6" as="geometry" />
        </mxCell>
        <mxCell id="jP2WbbBxQBNUkDRbYnSl-232" value="" style="ellipse;whiteSpace=wrap;html=1;aspect=fixed;strokeColor=none;fillColor=#000000;container=0;" parent="y5vkwGOPZt_xuMyuW4bd-235" vertex="1">
          <mxGeometry x="8" y="19.224999999999994" width="6" height="6" as="geometry" />
        </mxCell>
        <mxCell id="jP2WbbBxQBNUkDRbYnSl-233" value="" style="ellipse;whiteSpace=wrap;html=1;aspect=fixed;strokeColor=none;fillColor=#000000;container=0;" parent="y5vkwGOPZt_xuMyuW4bd-235" vertex="1">
          <mxGeometry x="4" y="19.224999999999994" width="6" height="6" as="geometry" />
        </mxCell>
        <mxCell id="wEfOMtyTKLQo5fzBktWI-2" value="" style="rounded=0;whiteSpace=wrap;html=1;fillColor=#000000;fontColor=#ffffff;strokeColor=none;container=0;" parent="y5vkwGOPZt_xuMyuW4bd-235" vertex="1">
          <mxGeometry x="471.59625000000017" y="19.224999999999994" width="4" height="6" as="geometry" />
        </mxCell>
        <mxCell id="wEfOMtyTKLQo5fzBktWI-3" value="" style="ellipse;whiteSpace=wrap;html=1;aspect=fixed;strokeColor=none;fillColor=#000000;container=0;" parent="y5vkwGOPZt_xuMyuW4bd-235" vertex="1">
          <mxGeometry x="472.59625000000017" y="19.224999999999994" width="6" height="6" as="geometry" />
        </mxCell>
        <mxCell id="wEfOMtyTKLQo5fzBktWI-4" value="" style="ellipse;whiteSpace=wrap;html=1;aspect=fixed;strokeColor=none;fillColor=#000000;container=0;" parent="y5vkwGOPZt_xuMyuW4bd-235" vertex="1">
          <mxGeometry x="468.59625000000017" y="19.224999999999994" width="6" height="6" as="geometry" />
        </mxCell>
        <mxCell id="jP2WbbBxQBNUkDRbYnSl-206" value="" style="rounded=0;whiteSpace=wrap;html=1;strokeColor=#aaaaaa;fillColor=#bfbfbf;strokeWidth=1;movable=1;resizable=1;rotatable=1;deletable=1;editable=1;locked=0;connectable=1;container=0;" parent="y5vkwGOPZt_xuMyuW4bd-235" vertex="1">
          <mxGeometry x="7.99625" width="10" height="44.45" as="geometry" />
        </mxCell>
        <mxCell id="wEfOMtyTKLQo5fzBktWI-5" value="" style="rounded=0;whiteSpace=wrap;html=1;strokeColor=#aaaaaa;fillColor=#bfbfbf;strokeWidth=1;movable=1;resizable=1;rotatable=1;deletable=1;editable=1;locked=0;connectable=1;container=0;" parent="y5vkwGOPZt_xuMyuW4bd-235" vertex="1">
          <mxGeometry x="464.60000000000014" width="10" height="44.45" as="geometry" />
        </mxCell>
        <mxCell id="s0dWRtyi07ZF37cMcm2--266" value="" style="rounded=0;whiteSpace=wrap;html=1;strokeColor=none;fillColor=#000000;strokeWidth=1;movable=1;resizable=1;rotatable=1;deletable=1;editable=1;locked=0;connectable=1;container=0;" parent="y5vkwGOPZt_xuMyuW4bd-235" vertex="1">
          <mxGeometry x="349" y="0.5" width="10" height="5" as="geometry" />
        </mxCell>
        <mxCell id="s0dWRtyi07ZF37cMcm2--267" value="" style="rounded=0;whiteSpace=wrap;html=1;strokeColor=none;fillColor=#000000;strokeWidth=1;movable=1;resizable=1;rotatable=1;deletable=1;editable=1;locked=0;connectable=1;container=0;" parent="y5vkwGOPZt_xuMyuW4bd-235" vertex="1">
          <mxGeometry x="360.5" y="0.5" width="10" height="5" as="geometry" />
        </mxCell>
        <mxCell id="s0dWRtyi07ZF37cMcm2--268" value="" style="rounded=0;whiteSpace=wrap;html=1;strokeColor=none;fillColor=#000000;strokeWidth=1;movable=1;resizable=1;rotatable=1;deletable=1;editable=1;locked=0;connectable=1;container=0;" parent="y5vkwGOPZt_xuMyuW4bd-235" vertex="1">
          <mxGeometry x="372" y="0.5" width="10" height="5" as="geometry" />
        </mxCell>
        <mxCell id="s0dWRtyi07ZF37cMcm2--269" value="" style="rounded=0;whiteSpace=wrap;html=1;strokeColor=none;fillColor=#000000;strokeWidth=1;movable=1;resizable=1;rotatable=1;deletable=1;editable=1;locked=0;connectable=1;container=0;" parent="y5vkwGOPZt_xuMyuW4bd-235" vertex="1">
          <mxGeometry x="383.5" y="0.5" width="10" height="5" as="geometry" />
        </mxCell>
        <mxCell id="s0dWRtyi07ZF37cMcm2--270" value="" style="rounded=0;whiteSpace=wrap;html=1;strokeColor=none;fillColor=#000000;strokeWidth=1;movable=1;resizable=1;rotatable=1;deletable=1;editable=1;locked=0;connectable=1;container=0;" parent="y5vkwGOPZt_xuMyuW4bd-235" vertex="1">
          <mxGeometry x="395" y="0.5" width="10" height="5" as="geometry" />
        </mxCell>
        <mxCell id="s0dWRtyi07ZF37cMcm2--271" value="" style="rounded=0;whiteSpace=wrap;html=1;strokeColor=none;fillColor=#000000;strokeWidth=1;movable=1;resizable=1;rotatable=1;deletable=1;editable=1;locked=0;connectable=1;container=0;" parent="y5vkwGOPZt_xuMyuW4bd-235" vertex="1">
          <mxGeometry x="406.5" y="0.5" width="10" height="5" as="geometry" />
        </mxCell>
        <mxCell id="s0dWRtyi07ZF37cMcm2--273" value="" style="rounded=0;whiteSpace=wrap;html=1;strokeColor=none;fillColor=#000000;strokeWidth=1;movable=1;resizable=1;rotatable=1;deletable=1;editable=1;locked=0;connectable=1;container=0;" parent="y5vkwGOPZt_xuMyuW4bd-235" vertex="1">
          <mxGeometry x="418" y="0.5" width="10" height="5" as="geometry" />
        </mxCell>
        <mxCell id="s0dWRtyi07ZF37cMcm2--274" value="" style="rounded=0;whiteSpace=wrap;html=1;strokeColor=none;fillColor=#000000;strokeWidth=1;movable=1;resizable=1;rotatable=1;deletable=1;editable=1;locked=0;connectable=1;container=0;" parent="y5vkwGOPZt_xuMyuW4bd-235" vertex="1">
          <mxGeometry x="267" y="0.5" width="10" height="5" as="geometry" />
        </mxCell>
        <mxCell id="s0dWRtyi07ZF37cMcm2--275" value="" style="rounded=0;whiteSpace=wrap;html=1;strokeColor=none;fillColor=#000000;strokeWidth=1;movable=1;resizable=1;rotatable=1;deletable=1;editable=1;locked=0;connectable=1;container=0;" parent="y5vkwGOPZt_xuMyuW4bd-235" vertex="1">
          <mxGeometry x="278.5" y="0.5" width="10" height="5" as="geometry" />
        </mxCell>
        <mxCell id="s0dWRtyi07ZF37cMcm2--276" value="" style="rounded=0;whiteSpace=wrap;html=1;strokeColor=none;fillColor=#000000;strokeWidth=1;movable=1;resizable=1;rotatable=1;deletable=1;editable=1;locked=0;connectable=1;container=0;" parent="y5vkwGOPZt_xuMyuW4bd-235" vertex="1">
          <mxGeometry x="290" y="0.5" width="10" height="5" as="geometry" />
        </mxCell>
        <mxCell id="s0dWRtyi07ZF37cMcm2--277" value="" style="rounded=0;whiteSpace=wrap;html=1;strokeColor=none;fillColor=#000000;strokeWidth=1;movable=1;resizable=1;rotatable=1;deletable=1;editable=1;locked=0;connectable=1;container=0;" parent="y5vkwGOPZt_xuMyuW4bd-235" vertex="1">
          <mxGeometry x="301.5" y="0.5" width="10" height="5" as="geometry" />
        </mxCell>
        <mxCell id="s0dWRtyi07ZF37cMcm2--278" value="" style="rounded=0;whiteSpace=wrap;html=1;strokeColor=none;fillColor=#000000;strokeWidth=1;movable=1;resizable=1;rotatable=1;deletable=1;editable=1;locked=0;connectable=1;container=0;" parent="y5vkwGOPZt_xuMyuW4bd-235" vertex="1">
          <mxGeometry x="313" y="0.5" width="10" height="5" as="geometry" />
        </mxCell>
        <mxCell id="s0dWRtyi07ZF37cMcm2--279" value="" style="rounded=0;whiteSpace=wrap;html=1;strokeColor=none;fillColor=#000000;strokeWidth=1;movable=1;resizable=1;rotatable=1;deletable=1;editable=1;locked=0;connectable=1;container=0;" parent="y5vkwGOPZt_xuMyuW4bd-235" vertex="1">
          <mxGeometry x="324.5" y="0.5" width="10" height="5" as="geometry" />
        </mxCell>
        <mxCell id="s0dWRtyi07ZF37cMcm2--280" value="" style="rounded=0;whiteSpace=wrap;html=1;strokeColor=none;fillColor=#000000;strokeWidth=1;movable=1;resizable=1;rotatable=1;deletable=1;editable=1;locked=0;connectable=1;container=0;" parent="y5vkwGOPZt_xuMyuW4bd-235" vertex="1">
          <mxGeometry x="336" y="0.5" width="10" height="5" as="geometry" />
        </mxCell>
        <mxCell id="s0dWRtyi07ZF37cMcm2--281" value="" style="rounded=0;whiteSpace=wrap;html=1;strokeColor=none;fillColor=#000000;strokeWidth=1;movable=1;resizable=1;rotatable=1;deletable=1;editable=1;locked=0;connectable=1;container=0;" parent="y5vkwGOPZt_xuMyuW4bd-235" vertex="1">
          <mxGeometry x="185" y="0.5" width="10" height="5" as="geometry" />
        </mxCell>
        <mxCell id="s0dWRtyi07ZF37cMcm2--282" value="" style="rounded=0;whiteSpace=wrap;html=1;strokeColor=none;fillColor=#000000;strokeWidth=1;movable=1;resizable=1;rotatable=1;deletable=1;editable=1;locked=0;connectable=1;container=0;" parent="y5vkwGOPZt_xuMyuW4bd-235" vertex="1">
          <mxGeometry x="196.5" y="0.5" width="10" height="5" as="geometry" />
        </mxCell>
        <mxCell id="s0dWRtyi07ZF37cMcm2--283" value="" style="rounded=0;whiteSpace=wrap;html=1;strokeColor=none;fillColor=#000000;strokeWidth=1;movable=1;resizable=1;rotatable=1;deletable=1;editable=1;locked=0;connectable=1;container=0;" parent="y5vkwGOPZt_xuMyuW4bd-235" vertex="1">
          <mxGeometry x="208" y="0.5" width="10" height="5" as="geometry" />
        </mxCell>
        <mxCell id="s0dWRtyi07ZF37cMcm2--284" value="" style="rounded=0;whiteSpace=wrap;html=1;strokeColor=none;fillColor=#000000;strokeWidth=1;movable=1;resizable=1;rotatable=1;deletable=1;editable=1;locked=0;connectable=1;container=0;" parent="y5vkwGOPZt_xuMyuW4bd-235" vertex="1">
          <mxGeometry x="219.5" y="0.5" width="10" height="5" as="geometry" />
        </mxCell>
        <mxCell id="s0dWRtyi07ZF37cMcm2--285" value="" style="rounded=0;whiteSpace=wrap;html=1;strokeColor=none;fillColor=#000000;strokeWidth=1;movable=1;resizable=1;rotatable=1;deletable=1;editable=1;locked=0;connectable=1;container=0;" parent="y5vkwGOPZt_xuMyuW4bd-235" vertex="1">
          <mxGeometry x="231" y="0.5" width="10" height="5" as="geometry" />
        </mxCell>
        <mxCell id="s0dWRtyi07ZF37cMcm2--286" value="" style="rounded=0;whiteSpace=wrap;html=1;strokeColor=none;fillColor=#000000;strokeWidth=1;movable=1;resizable=1;rotatable=1;deletable=1;editable=1;locked=0;connectable=1;container=0;" parent="y5vkwGOPZt_xuMyuW4bd-235" vertex="1">
          <mxGeometry x="242.5" y="0.5" width="10" height="5" as="geometry" />
        </mxCell>
        <mxCell id="s0dWRtyi07ZF37cMcm2--287" value="" style="rounded=0;whiteSpace=wrap;html=1;strokeColor=none;fillColor=#000000;strokeWidth=1;movable=1;resizable=1;rotatable=1;deletable=1;editable=1;locked=0;connectable=1;container=0;" parent="y5vkwGOPZt_xuMyuW4bd-235" vertex="1">
          <mxGeometry x="254" y="0.5" width="10" height="5" as="geometry" />
        </mxCell>
        <mxCell id="s0dWRtyi07ZF37cMcm2--288" value="" style="rounded=0;whiteSpace=wrap;html=1;strokeColor=none;fillColor=#000000;strokeWidth=1;movable=1;resizable=1;rotatable=1;deletable=1;editable=1;locked=0;connectable=1;container=0;" parent="y5vkwGOPZt_xuMyuW4bd-235" vertex="1">
          <mxGeometry x="103" y="0.5" width="10" height="5" as="geometry" />
        </mxCell>
        <mxCell id="s0dWRtyi07ZF37cMcm2--289" value="" style="rounded=0;whiteSpace=wrap;html=1;strokeColor=none;fillColor=#000000;strokeWidth=1;movable=1;resizable=1;rotatable=1;deletable=1;editable=1;locked=0;connectable=1;container=0;" parent="y5vkwGOPZt_xuMyuW4bd-235" vertex="1">
          <mxGeometry x="114.5" y="0.5" width="10" height="5" as="geometry" />
        </mxCell>
        <mxCell id="s0dWRtyi07ZF37cMcm2--290" value="" style="rounded=0;whiteSpace=wrap;html=1;strokeColor=none;fillColor=#000000;strokeWidth=1;movable=1;resizable=1;rotatable=1;deletable=1;editable=1;locked=0;connectable=1;container=0;" parent="y5vkwGOPZt_xuMyuW4bd-235" vertex="1">
          <mxGeometry x="126" y="0.5" width="10" height="5" as="geometry" />
        </mxCell>
        <mxCell id="s0dWRtyi07ZF37cMcm2--291" value="" style="rounded=0;whiteSpace=wrap;html=1;strokeColor=none;fillColor=#000000;strokeWidth=1;movable=1;resizable=1;rotatable=1;deletable=1;editable=1;locked=0;connectable=1;container=0;" parent="y5vkwGOPZt_xuMyuW4bd-235" vertex="1">
          <mxGeometry x="137.5" y="0.5" width="10" height="5" as="geometry" />
        </mxCell>
        <mxCell id="s0dWRtyi07ZF37cMcm2--292" value="" style="rounded=0;whiteSpace=wrap;html=1;strokeColor=none;fillColor=#000000;strokeWidth=1;movable=1;resizable=1;rotatable=1;deletable=1;editable=1;locked=0;connectable=1;container=0;" parent="y5vkwGOPZt_xuMyuW4bd-235" vertex="1">
          <mxGeometry x="149" y="0.5" width="10" height="5" as="geometry" />
        </mxCell>
        <mxCell id="s0dWRtyi07ZF37cMcm2--293" value="" style="rounded=0;whiteSpace=wrap;html=1;strokeColor=none;fillColor=#000000;strokeWidth=1;movable=1;resizable=1;rotatable=1;deletable=1;editable=1;locked=0;connectable=1;container=0;" parent="y5vkwGOPZt_xuMyuW4bd-235" vertex="1">
          <mxGeometry x="160.5" y="0.5" width="10" height="5" as="geometry" />
        </mxCell>
        <mxCell id="s0dWRtyi07ZF37cMcm2--294" value="" style="rounded=0;whiteSpace=wrap;html=1;strokeColor=none;fillColor=#000000;strokeWidth=1;movable=1;resizable=1;rotatable=1;deletable=1;editable=1;locked=0;connectable=1;container=0;" parent="y5vkwGOPZt_xuMyuW4bd-235" vertex="1">
          <mxGeometry x="172" y="0.5" width="10" height="5" as="geometry" />
        </mxCell>
        <mxCell id="s0dWRtyi07ZF37cMcm2--295" value="" style="rounded=0;whiteSpace=wrap;html=1;strokeColor=none;fillColor=#000000;strokeWidth=1;movable=1;resizable=1;rotatable=1;deletable=1;editable=1;locked=0;connectable=1;container=0;" parent="y5vkwGOPZt_xuMyuW4bd-235" vertex="1">
          <mxGeometry x="21" y="0.5" width="10" height="5" as="geometry" />
        </mxCell>
        <mxCell id="s0dWRtyi07ZF37cMcm2--300" value="" style="rounded=0;whiteSpace=wrap;html=1;strokeColor=none;fillColor=#000000;strokeWidth=1;movable=1;resizable=1;rotatable=1;deletable=1;editable=1;locked=0;connectable=1;container=0;" parent="y5vkwGOPZt_xuMyuW4bd-235" vertex="1">
          <mxGeometry x="78.5" y="0.5" width="10" height="5" as="geometry" />
        </mxCell>
        <mxCell id="s0dWRtyi07ZF37cMcm2--301" value="" style="rounded=0;whiteSpace=wrap;html=1;strokeColor=none;fillColor=#000000;strokeWidth=1;movable=1;resizable=1;rotatable=1;deletable=1;editable=1;locked=0;connectable=1;container=0;" parent="y5vkwGOPZt_xuMyuW4bd-235" vertex="1">
          <mxGeometry x="90" y="0.5" width="10" height="5" as="geometry" />
        </mxCell>
        <mxCell id="s0dWRtyi07ZF37cMcm2--303" value="" style="rounded=0;whiteSpace=wrap;html=1;strokeColor=none;fillColor=#000000;strokeWidth=1;movable=1;resizable=1;rotatable=1;deletable=1;editable=1;locked=0;connectable=1;container=0;" parent="y5vkwGOPZt_xuMyuW4bd-235" vertex="1">
          <mxGeometry x="44.75" y="0.5" width="20" height="5" as="geometry" />
        </mxCell>
        <mxCell id="s0dWRtyi07ZF37cMcm2--302" value="" style="rounded=0;whiteSpace=wrap;html=1;strokeColor=#000000;fillColor=#222222;strokeWidth=0.1;movable=1;resizable=1;rotatable=1;deletable=1;editable=1;locked=0;connectable=1;container=0;" parent="y5vkwGOPZt_xuMyuW4bd-235" vertex="1">
          <mxGeometry x="31.75" y="1.5" width="46" height="4" as="geometry" />
        </mxCell>
        <mxCell id="s0dWRtyi07ZF37cMcm2--304" value="" style="rounded=0;whiteSpace=wrap;html=1;strokeColor=#000000;fillColor=#333333;strokeWidth=0.1;movable=1;resizable=1;rotatable=1;deletable=1;editable=1;locked=0;connectable=1;container=0;" parent="y5vkwGOPZt_xuMyuW4bd-235" vertex="1">
          <mxGeometry x="39.75" y="1.5" width="30" height="4" as="geometry" />
        </mxCell>
        <mxCell id="s0dWRtyi07ZF37cMcm2--305" value="" style="rounded=1;whiteSpace=wrap;html=1;strokeColor=none;fillColor=#121212;strokeWidth=0.1;movable=1;resizable=1;rotatable=1;deletable=1;editable=1;locked=0;connectable=1;container=0;" parent="y5vkwGOPZt_xuMyuW4bd-235" vertex="1">
          <mxGeometry x="431.75" y="5.5" width="31" height="20" as="geometry" />
        </mxCell>
        <mxCell id="s0dWRtyi07ZF37cMcm2--316" value="" style="ellipse;whiteSpace=wrap;html=1;strokeColor=#000000;fillColor=#60a917;fontColor=#ffffff;movable=1;resizable=1;rotatable=1;deletable=1;editable=1;locked=0;connectable=1;container=0;strokeWidth=0.1;" parent="y5vkwGOPZt_xuMyuW4bd-235" vertex="1">
          <mxGeometry x="437.75" y="6.5" width="3" height="3" as="geometry" />
        </mxCell>
        <mxCell id="s0dWRtyi07ZF37cMcm2--322" value="" style="ellipse;whiteSpace=wrap;html=1;strokeColor=#000000;fillColor=#6F0000;fontColor=#ffffff;movable=1;resizable=1;rotatable=1;deletable=1;editable=1;locked=0;connectable=1;container=0;strokeWidth=0.1;" parent="y5vkwGOPZt_xuMyuW4bd-235" vertex="1">
          <mxGeometry x="451.25" y="16.000434782608693" width="7" height="7" as="geometry" />
        </mxCell>
        <mxCell id="s0dWRtyi07ZF37cMcm2--323" value="" style="ellipse;whiteSpace=wrap;html=1;strokeColor=#000000;fillColor=#CCCCCC;fontColor=#ffffff;movable=1;resizable=1;rotatable=1;deletable=1;editable=1;locked=0;connectable=1;container=0;strokeWidth=0.1;" parent="y5vkwGOPZt_xuMyuW4bd-235" vertex="1">
          <mxGeometry x="436.25" y="16.000434782608693" width="7" height="7" as="geometry" />
        </mxCell>
        <mxCell id="s0dWRtyi07ZF37cMcm2--326" value="" style="strokeWidth=0.1;html=1;shape=mxgraph.flowchart.database;whiteSpace=wrap;strokeColor=default;fillColor=none;movable=1;resizable=1;rotatable=1;deletable=1;editable=1;locked=0;connectable=1;container=0;" parent="y5vkwGOPZt_xuMyuW4bd-235" vertex="1">
          <mxGeometry x="449.75" y="10.5" width="3" height="3" as="geometry" />
        </mxCell>
        <mxCell id="s0dWRtyi07ZF37cMcm2--327" value="" style="sketch=0;pointerEvents=1;shadow=0;dashed=0;html=1;strokeColor=none;fillColor=#FFFFFF;labelPosition=center;verticalLabelPosition=bottom;verticalAlign=top;align=center;outlineConnect=0;shape=mxgraph.vvd.infrastructure;movable=1;resizable=1;rotatable=1;deletable=1;editable=1;locked=0;connectable=1;container=0;" parent="y5vkwGOPZt_xuMyuW4bd-235" vertex="1">
          <mxGeometry x="441.75" y="10.5" width="3" height="3" as="geometry" />
        </mxCell>
        <mxCell id="s0dWRtyi07ZF37cMcm2--330" value="" style="triangle;whiteSpace=wrap;html=1;rotation=-90;fillColor=none;strokeWidth=0.1;movable=1;resizable=1;rotatable=1;deletable=1;editable=1;locked=0;connectable=1;container=0;" parent="y5vkwGOPZt_xuMyuW4bd-235" vertex="1">
          <mxGeometry x="437.75" y="10.5" width="3" height="3" as="geometry" />
        </mxCell>
        <mxCell id="s0dWRtyi07ZF37cMcm2--331" value="" style="sketch=0;html=1;strokeColor=default;shadow=0;fillColor=none;verticalAlign=top;labelPosition=center;verticalLabelPosition=bottom;shape=mxgraph.gcp2.a7_power;gradientColor=none;strokeWidth=0.1;movable=1;resizable=1;rotatable=1;deletable=1;editable=1;locked=0;connectable=1;container=0;" parent="y5vkwGOPZt_xuMyuW4bd-235" vertex="1">
          <mxGeometry x="453.75" y="10.5" width="3" height="3" as="geometry" />
        </mxCell>
        <mxCell id="s0dWRtyi07ZF37cMcm2--332" value="" style="ellipse;whiteSpace=wrap;html=1;strokeColor=#000000;fillColor=#60a917;fontColor=#ffffff;movable=1;resizable=1;rotatable=1;deletable=1;editable=1;locked=0;connectable=1;container=0;strokeWidth=0.1;" parent="y5vkwGOPZt_xuMyuW4bd-235" vertex="1">
          <mxGeometry x="441.75" y="6.5" width="3" height="3" as="geometry" />
        </mxCell>
        <mxCell id="s0dWRtyi07ZF37cMcm2--333" value="" style="ellipse;whiteSpace=wrap;html=1;strokeColor=#000000;fillColor=#60a917;fontColor=#ffffff;movable=1;resizable=1;rotatable=1;deletable=1;editable=1;locked=0;connectable=1;container=0;strokeWidth=0.1;" parent="y5vkwGOPZt_xuMyuW4bd-235" vertex="1">
          <mxGeometry x="445.75" y="6.5" width="3" height="3" as="geometry" />
        </mxCell>
        <mxCell id="s0dWRtyi07ZF37cMcm2--334" value="" style="ellipse;whiteSpace=wrap;html=1;strokeColor=#000000;fillColor=#60a917;fontColor=#ffffff;movable=1;resizable=1;rotatable=1;deletable=1;editable=1;locked=0;connectable=1;container=0;strokeWidth=0.1;" parent="y5vkwGOPZt_xuMyuW4bd-235" vertex="1">
          <mxGeometry x="449.75" y="6.5" width="3" height="3" as="geometry" />
        </mxCell>
        <mxCell id="s0dWRtyi07ZF37cMcm2--335" value="" style="ellipse;whiteSpace=wrap;html=1;strokeColor=#000000;fillColor=#60a917;fontColor=#ffffff;movable=1;resizable=1;rotatable=1;deletable=1;editable=1;locked=0;connectable=1;container=0;strokeWidth=0.1;" parent="y5vkwGOPZt_xuMyuW4bd-235" vertex="1">
          <mxGeometry x="453.75" y="6.5" width="3" height="3" as="geometry" />
        </mxCell>
        <mxCell id="s0dWRtyi07ZF37cMcm2--336" value="" style="sketch=0;pointerEvents=1;shadow=0;dashed=0;html=1;strokeColor=none;fillColor=#FFFFFF;labelPosition=center;verticalLabelPosition=bottom;verticalAlign=top;align=center;outlineConnect=0;shape=mxgraph.vvd.infrastructure;movable=1;resizable=1;rotatable=1;deletable=1;editable=1;locked=0;connectable=1;container=0;" parent="y5vkwGOPZt_xuMyuW4bd-235" vertex="1">
          <mxGeometry x="445.75" y="10.5" width="3" height="3" as="geometry" />
        </mxCell>
        <mxCell id="s0dWRtyi07ZF37cMcm2--337" value="" style="rounded=0;whiteSpace=wrap;html=1;strokeColor=#000000;fillColor=#333333;strokeWidth=0.1;movable=1;resizable=1;rotatable=1;deletable=1;editable=1;locked=0;connectable=1;container=0;" parent="y5vkwGOPZt_xuMyuW4bd-235" vertex="1">
          <mxGeometry x="42.75" y="1.5" width="24" height="4" as="geometry" />
        </mxCell>
        <mxCell id="s0dWRtyi07ZF37cMcm2--64" value="" style="rounded=0;whiteSpace=wrap;html=1;strokeColor=none;fillColor=#000000;strokeWidth=1;movable=1;resizable=1;rotatable=1;deletable=1;editable=1;locked=0;connectable=1;container=0;" parent="y5vkwGOPZt_xuMyuW4bd-235" vertex="1">
          <mxGeometry x="18.5" y="7.950000000000003" width="412" height="36" as="geometry" />
        </mxCell>
        <mxCell id="s0dWRtyi07ZF37cMcm2--306" value="" style="rounded=0;whiteSpace=wrap;html=1;strokeColor=#aaaaaa;fillColor=#000000;strokeWidth=0.1;movable=1;resizable=1;rotatable=1;deletable=1;editable=1;locked=0;connectable=1;container=0;" parent="y5vkwGOPZt_xuMyuW4bd-235" vertex="1">
          <mxGeometry x="439.25" y="28" width="16" height="6" as="geometry" />
        </mxCell>
        <mxCell id="s0dWRtyi07ZF37cMcm2--307" value="" style="rounded=0;whiteSpace=wrap;html=1;strokeColor=none;fillColor=#121212;strokeWidth=0.5;fontColor=#ffffff;movable=1;resizable=1;rotatable=1;deletable=1;editable=1;locked=0;connectable=1;container=0;" parent="y5vkwGOPZt_xuMyuW4bd-235" vertex="1">
          <mxGeometry x="440.75" y="31.25" width="13" height="1.5" as="geometry" />
        </mxCell>
        <mxCell id="s0dWRtyi07ZF37cMcm2--314" value="" style="rounded=0;whiteSpace=wrap;html=1;strokeColor=#aaaaaa;fillColor=#000000;strokeWidth=0.1;movable=1;resizable=1;rotatable=1;deletable=1;editable=1;locked=0;connectable=1;container=0;" parent="y5vkwGOPZt_xuMyuW4bd-235" vertex="1">
          <mxGeometry x="439.25" y="36" width="16" height="6" as="geometry" />
        </mxCell>
        <mxCell id="s0dWRtyi07ZF37cMcm2--315" value="" style="rounded=0;whiteSpace=wrap;html=1;strokeColor=none;fillColor=#121212;strokeWidth=0.5;fontColor=#ffffff;movable=1;resizable=1;rotatable=1;deletable=1;editable=1;locked=0;connectable=1;container=0;" parent="y5vkwGOPZt_xuMyuW4bd-235" vertex="1">
          <mxGeometry x="440.75" y="39.25" width="13" height="1.5" as="geometry" />
        </mxCell>
        <mxCell id="jYugRQpqX03XuYQ0I7Gw-276" value="" style="ellipse;whiteSpace=wrap;html=1;strokeColor=none;fillColor=#000000;fontColor=#ffffff;movable=1;resizable=1;rotatable=1;deletable=1;editable=1;locked=0;connectable=1;container=0;strokeWidth=2;" parent="y5vkwGOPZt_xuMyuW4bd-235" vertex="1">
          <mxGeometry x="437.25" y="16.950434782608696" width="5" height="5" as="geometry" />
        </mxCell>
        <mxCell id="jYugRQpqX03XuYQ0I7Gw-279" value="" style="ellipse;whiteSpace=wrap;html=1;strokeColor=#CCCCCC;fillColor=#000000;fontColor=#ffffff;movable=1;resizable=1;rotatable=1;deletable=1;editable=1;locked=0;connectable=1;container=0;strokeWidth=1;" parent="y5vkwGOPZt_xuMyuW4bd-235" vertex="1">
          <mxGeometry x="438.25" y="18.000434782608693" width="3" height="3" as="geometry" />
        </mxCell>
        <mxCell id="jYugRQpqX03XuYQ0I7Gw-280" value="" style="sketch=0;html=1;strokeColor=default;shadow=0;fillColor=none;verticalAlign=top;labelPosition=center;verticalLabelPosition=bottom;shape=mxgraph.gcp2.a7_power;gradientColor=none;strokeWidth=0.1;movable=1;resizable=1;rotatable=1;deletable=1;editable=1;locked=0;connectable=1;container=0;" parent="y5vkwGOPZt_xuMyuW4bd-235" vertex="1">
          <mxGeometry x="457.75" y="21.5" width="3" height="3" as="geometry" />
        </mxCell>
        <mxCell id="jYugRQpqX03XuYQ0I7Gw-281" value="" style="sketch=0;pointerEvents=1;shadow=0;dashed=0;html=1;strokeColor=none;labelPosition=center;verticalLabelPosition=bottom;verticalAlign=top;align=center;fillColor=#FFFFFF;shape=mxgraph.mscae.enterprise.usb;movable=1;resizable=1;rotatable=1;deletable=1;editable=1;locked=0;connectable=1;container=0;" parent="y5vkwGOPZt_xuMyuW4bd-235" vertex="1">
          <mxGeometry x="444.25" y="21.950000000000003" width="6" height="3" as="geometry" />
        </mxCell>
        <mxCell id="jYugRQpqX03XuYQ0I7Gw-282" value="UID" style="text;html=1;align=center;verticalAlign=middle;whiteSpace=wrap;rounded=0;fontSize=2;container=0;" parent="y5vkwGOPZt_xuMyuW4bd-235" vertex="1">
          <mxGeometry x="431.75" y="21.5" width="8" height="4" as="geometry" />
        </mxCell>
        <mxCell id="y5vkwGOPZt_xuMyuW4bd-4" value="" style="group" vertex="1" connectable="0" parent="y5vkwGOPZt_xuMyuW4bd-235">
          <mxGeometry x="20.5" y="9.950000000000003" width="80" height="15" as="geometry" />
        </mxCell>
        <mxCell id="s0dWRtyi07ZF37cMcm2--1" value="" style="rounded=0;whiteSpace=wrap;html=1;strokeColor=none;fillColor=#222222;strokeWidth=1;movable=1;resizable=1;rotatable=1;deletable=1;editable=1;locked=0;connectable=1;container=0;" parent="y5vkwGOPZt_xuMyuW4bd-4" vertex="1">
          <mxGeometry width="80" height="15" as="geometry" />
        </mxCell>
        <mxCell id="s0dWRtyi07ZF37cMcm2--23" value="" style="whiteSpace=wrap;html=1;rounded=0;strokeWidth=1;align=center;verticalAlign=middle;fontFamily=Helvetica;fontSize=12;fontColor=default;resizable=1;fillColor=#333333;strokeColor=none;container=0;" parent="y5vkwGOPZt_xuMyuW4bd-4" vertex="1">
          <mxGeometry x="1" y="4" width="66" height="7" as="geometry" />
        </mxCell>
        <mxCell id="s0dWRtyi07ZF37cMcm2--12" value="" style="shape=hexagon;perimeter=hexagonPerimeter2;whiteSpace=wrap;html=1;fixedSize=1;rounded=0;strokeWidth=1;align=center;verticalAlign=middle;fontFamily=Helvetica;fontSize=12;fontColor=default;resizable=1;fillColor=#111111;strokeColor=none;size=3.8021390374331503;container=0;" parent="y5vkwGOPZt_xuMyuW4bd-4" vertex="1">
          <mxGeometry x="10" y="1" width="16" height="6" as="geometry" />
        </mxCell>
        <mxCell id="s0dWRtyi07ZF37cMcm2--21" value="" style="whiteSpace=wrap;html=1;rounded=0;strokeWidth=1;align=center;verticalAlign=middle;fontFamily=Helvetica;fontSize=12;fontColor=default;resizable=1;fillColor=#111111;strokeColor=none;container=0;" parent="y5vkwGOPZt_xuMyuW4bd-4" vertex="1">
          <mxGeometry x="67" y="1" width="5" height="13" as="geometry" />
        </mxCell>
        <mxCell id="s0dWRtyi07ZF37cMcm2--22" value="" style="whiteSpace=wrap;html=1;rounded=0;strokeWidth=1;align=center;verticalAlign=middle;fontFamily=Helvetica;fontSize=12;fontColor=default;resizable=1;fillColor=#333333;strokeColor=none;container=0;" parent="y5vkwGOPZt_xuMyuW4bd-4" vertex="1">
          <mxGeometry x="72" y="1" width="4" height="13" as="geometry" />
        </mxCell>
        <mxCell id="s0dWRtyi07ZF37cMcm2--25" value="" style="triangle;whiteSpace=wrap;html=1;strokeColor=#111111;rounded=0;strokeWidth=0.1;align=center;verticalAlign=middle;fontFamily=Helvetica;fontSize=12;fontColor=default;resizable=1;fillColor=#333333;rotation=-180;container=0;" parent="y5vkwGOPZt_xuMyuW4bd-4" vertex="1">
          <mxGeometry x="72.5" y="6" width="3" height="3" as="geometry" />
        </mxCell>
        <mxCell id="s0dWRtyi07ZF37cMcm2--27" value="" style="shape=hexagon;perimeter=hexagonPerimeter2;whiteSpace=wrap;html=1;fixedSize=1;rounded=0;strokeWidth=1;align=center;verticalAlign=middle;fontFamily=Helvetica;fontSize=12;fontColor=default;resizable=1;fillColor=#111111;strokeColor=none;size=3.8021390374331503;container=0;" parent="y5vkwGOPZt_xuMyuW4bd-4" vertex="1">
          <mxGeometry x="10" y="8" width="16" height="6" as="geometry" />
        </mxCell>
        <mxCell id="s0dWRtyi07ZF37cMcm2--28" value="" style="shape=hexagon;perimeter=hexagonPerimeter2;whiteSpace=wrap;html=1;fixedSize=1;rounded=0;strokeWidth=1;align=center;verticalAlign=middle;fontFamily=Helvetica;fontSize=12;fontColor=default;resizable=1;fillColor=#111111;strokeColor=none;size=3.8021390374331503;container=0;" parent="y5vkwGOPZt_xuMyuW4bd-4" vertex="1">
          <mxGeometry x="23" y="4.5" width="16" height="6" as="geometry" />
        </mxCell>
        <mxCell id="s0dWRtyi07ZF37cMcm2--29" value="" style="shape=hexagon;perimeter=hexagonPerimeter2;whiteSpace=wrap;html=1;fixedSize=1;rounded=0;strokeWidth=1;align=center;verticalAlign=middle;fontFamily=Helvetica;fontSize=12;fontColor=default;resizable=1;fillColor=#111111;strokeColor=none;size=3.8021390374331503;container=0;" parent="y5vkwGOPZt_xuMyuW4bd-4" vertex="1">
          <mxGeometry x="36" y="8" width="16" height="6" as="geometry" />
        </mxCell>
        <mxCell id="s0dWRtyi07ZF37cMcm2--30" value="" style="shape=hexagon;perimeter=hexagonPerimeter2;whiteSpace=wrap;html=1;fixedSize=1;rounded=0;strokeWidth=1;align=center;verticalAlign=middle;fontFamily=Helvetica;fontSize=12;fontColor=default;resizable=1;fillColor=#111111;strokeColor=none;size=3.8021390374331503;container=0;" parent="y5vkwGOPZt_xuMyuW4bd-4" vertex="1">
          <mxGeometry x="36" y="1" width="16" height="6" as="geometry" />
        </mxCell>
        <mxCell id="s0dWRtyi07ZF37cMcm2--34" value="" style="shape=trapezoid;perimeter=trapezoidPerimeter;whiteSpace=wrap;html=1;fixedSize=1;rounded=0;strokeWidth=1;align=center;verticalAlign=middle;fontFamily=Helvetica;fontSize=12;fontColor=default;resizable=1;fillColor=#111111;strokeColor=none;size=3.799999999999997;container=0;" parent="y5vkwGOPZt_xuMyuW4bd-4" vertex="1">
          <mxGeometry x="23" y="11.5" width="16" height="3" as="geometry" />
        </mxCell>
        <mxCell id="s0dWRtyi07ZF37cMcm2--35" value="" style="shape=trapezoid;perimeter=trapezoidPerimeter;whiteSpace=wrap;html=1;fixedSize=1;rounded=0;strokeWidth=1;align=center;verticalAlign=middle;fontFamily=Helvetica;fontSize=12;fontColor=default;resizable=1;fillColor=#111111;strokeColor=none;size=3.799999999999997;flipV=1;container=0;" parent="y5vkwGOPZt_xuMyuW4bd-4" vertex="1">
          <mxGeometry x="23" y="0.5" width="16" height="3" as="geometry" />
        </mxCell>
        <mxCell id="s0dWRtyi07ZF37cMcm2--39" value="" style="rounded=1;whiteSpace=wrap;html=1;strokeColor=none;fillColor=#008a00;fontColor=#ffffff;container=0;" parent="y5vkwGOPZt_xuMyuW4bd-4" vertex="1">
          <mxGeometry x="76.5" y="10" width="2" height="3" as="geometry" />
        </mxCell>
        <mxCell id="s0dWRtyi07ZF37cMcm2--40" value="" style="rounded=1;whiteSpace=wrap;html=1;strokeColor=none;fillColor=#0050ef;fontColor=#ffffff;container=0;" parent="y5vkwGOPZt_xuMyuW4bd-4" vertex="1">
          <mxGeometry x="76.5" y="2" width="2" height="3" as="geometry" />
        </mxCell>
        <mxCell id="jYugRQpqX03XuYQ0I7Gw-283" value="" style="shape=loopLimit;whiteSpace=wrap;html=1;rounded=0;strokeWidth=1;align=center;verticalAlign=middle;fontFamily=Helvetica;fontSize=12;fontColor=default;resizable=1;fillColor=#111111;strokeColor=none;rotation=90;size=4;container=0;" parent="y5vkwGOPZt_xuMyuW4bd-4" vertex="1">
          <mxGeometry x="-2.5" y="2.5" width="15" height="10" as="geometry" />
        </mxCell>
        <mxCell id="jYugRQpqX03XuYQ0I7Gw-284" value="" style="shape=hexagon;perimeter=hexagonPerimeter2;whiteSpace=wrap;html=1;fixedSize=1;rounded=0;strokeWidth=1;align=center;verticalAlign=middle;fontFamily=Helvetica;fontSize=12;fontColor=default;resizable=1;fillColor=#111111;strokeColor=none;size=3.8021390374331503;container=0;" parent="y5vkwGOPZt_xuMyuW4bd-4" vertex="1">
          <mxGeometry x="49" y="4.5" width="16" height="6" as="geometry" />
        </mxCell>
        <mxCell id="jYugRQpqX03XuYQ0I7Gw-285" value="" style="shape=trapezoid;perimeter=trapezoidPerimeter;whiteSpace=wrap;html=1;fixedSize=1;rounded=0;strokeWidth=1;align=center;verticalAlign=middle;fontFamily=Helvetica;fontSize=12;fontColor=default;resizable=1;fillColor=#111111;strokeColor=none;size=3.799999999999997;container=0;" parent="y5vkwGOPZt_xuMyuW4bd-4" vertex="1">
          <mxGeometry x="49" y="11.5" width="16" height="3" as="geometry" />
        </mxCell>
        <mxCell id="jYugRQpqX03XuYQ0I7Gw-286" value="" style="shape=trapezoid;perimeter=trapezoidPerimeter;whiteSpace=wrap;html=1;fixedSize=1;rounded=0;strokeWidth=1;align=center;verticalAlign=middle;fontFamily=Helvetica;fontSize=12;fontColor=default;resizable=1;fillColor=#111111;strokeColor=none;size=3.799999999999997;flipV=1;container=0;" parent="y5vkwGOPZt_xuMyuW4bd-4" vertex="1">
          <mxGeometry x="49" y="0.5" width="16" height="3" as="geometry" />
        </mxCell>
        <mxCell id="s0dWRtyi07ZF37cMcm2--38" value="" style="whiteSpace=wrap;html=1;rounded=0;strokeWidth=1;align=center;verticalAlign=middle;fontFamily=Helvetica;fontSize=12;fontColor=default;resizable=1;fillColor=#222222;strokeColor=none;container=0;" parent="y5vkwGOPZt_xuMyuW4bd-4" vertex="1">
          <mxGeometry x="11" width="60.5" height="1" as="geometry" />
        </mxCell>
        <mxCell id="s0dWRtyi07ZF37cMcm2--37" value="" style="whiteSpace=wrap;html=1;rounded=0;strokeWidth=1;align=center;verticalAlign=middle;fontFamily=Helvetica;fontSize=12;fontColor=default;resizable=1;fillColor=#222222;strokeColor=none;container=0;" parent="y5vkwGOPZt_xuMyuW4bd-4" vertex="1">
          <mxGeometry x="14" y="14" width="58.5" height="1" as="geometry" />
        </mxCell>
        <mxCell id="y5vkwGOPZt_xuMyuW4bd-1" value="" style="triangle;whiteSpace=wrap;html=1;rounded=0;strokeWidth=0.01;align=center;verticalAlign=middle;fontFamily=Helvetica;fontSize=12;fontColor=default;resizable=1;fillColor=#111111;strokeColor=none;direction=west;container=0;rotation=0;" vertex="1" parent="y5vkwGOPZt_xuMyuW4bd-4">
          <mxGeometry x="62.2" y="1" width="3.8" height="6" as="geometry" />
        </mxCell>
        <mxCell id="y5vkwGOPZt_xuMyuW4bd-3" value="" style="triangle;whiteSpace=wrap;html=1;rounded=0;strokeWidth=0.01;align=center;verticalAlign=middle;fontFamily=Helvetica;fontSize=12;fontColor=default;resizable=1;fillColor=#111111;strokeColor=none;direction=west;container=0;rotation=0;" vertex="1" parent="y5vkwGOPZt_xuMyuW4bd-4">
          <mxGeometry x="62.2" y="8" width="3.8" height="6" as="geometry" />
        </mxCell>
        <mxCell id="y5vkwGOPZt_xuMyuW4bd-28" value="" style="group" vertex="1" connectable="0" parent="y5vkwGOPZt_xuMyuW4bd-235">
          <mxGeometry x="20.5" y="26.950000000000003" width="80" height="15" as="geometry" />
        </mxCell>
        <mxCell id="y5vkwGOPZt_xuMyuW4bd-29" value="" style="rounded=0;whiteSpace=wrap;html=1;strokeColor=none;fillColor=#222222;strokeWidth=1;movable=1;resizable=1;rotatable=1;deletable=1;editable=1;locked=0;connectable=1;container=0;" vertex="1" parent="y5vkwGOPZt_xuMyuW4bd-28">
          <mxGeometry width="80" height="15" as="geometry" />
        </mxCell>
        <mxCell id="y5vkwGOPZt_xuMyuW4bd-30" value="" style="whiteSpace=wrap;html=1;rounded=0;strokeWidth=1;align=center;verticalAlign=middle;fontFamily=Helvetica;fontSize=12;fontColor=default;resizable=1;fillColor=#333333;strokeColor=none;container=0;" vertex="1" parent="y5vkwGOPZt_xuMyuW4bd-28">
          <mxGeometry x="1" y="4" width="66" height="7" as="geometry" />
        </mxCell>
        <mxCell id="y5vkwGOPZt_xuMyuW4bd-31" value="" style="shape=hexagon;perimeter=hexagonPerimeter2;whiteSpace=wrap;html=1;fixedSize=1;rounded=0;strokeWidth=1;align=center;verticalAlign=middle;fontFamily=Helvetica;fontSize=12;fontColor=default;resizable=1;fillColor=#111111;strokeColor=none;size=3.8021390374331503;container=0;" vertex="1" parent="y5vkwGOPZt_xuMyuW4bd-28">
          <mxGeometry x="10" y="1" width="16" height="6" as="geometry" />
        </mxCell>
        <mxCell id="y5vkwGOPZt_xuMyuW4bd-32" value="" style="whiteSpace=wrap;html=1;rounded=0;strokeWidth=1;align=center;verticalAlign=middle;fontFamily=Helvetica;fontSize=12;fontColor=default;resizable=1;fillColor=#111111;strokeColor=none;container=0;" vertex="1" parent="y5vkwGOPZt_xuMyuW4bd-28">
          <mxGeometry x="67" y="1" width="5" height="13" as="geometry" />
        </mxCell>
        <mxCell id="y5vkwGOPZt_xuMyuW4bd-33" value="" style="whiteSpace=wrap;html=1;rounded=0;strokeWidth=1;align=center;verticalAlign=middle;fontFamily=Helvetica;fontSize=12;fontColor=default;resizable=1;fillColor=#333333;strokeColor=none;container=0;" vertex="1" parent="y5vkwGOPZt_xuMyuW4bd-28">
          <mxGeometry x="72" y="1" width="4" height="13" as="geometry" />
        </mxCell>
        <mxCell id="y5vkwGOPZt_xuMyuW4bd-34" value="" style="triangle;whiteSpace=wrap;html=1;strokeColor=#111111;rounded=0;strokeWidth=0.1;align=center;verticalAlign=middle;fontFamily=Helvetica;fontSize=12;fontColor=default;resizable=1;fillColor=#333333;rotation=-180;container=0;" vertex="1" parent="y5vkwGOPZt_xuMyuW4bd-28">
          <mxGeometry x="72.5" y="6" width="3" height="3" as="geometry" />
        </mxCell>
        <mxCell id="y5vkwGOPZt_xuMyuW4bd-35" value="" style="shape=hexagon;perimeter=hexagonPerimeter2;whiteSpace=wrap;html=1;fixedSize=1;rounded=0;strokeWidth=1;align=center;verticalAlign=middle;fontFamily=Helvetica;fontSize=12;fontColor=default;resizable=1;fillColor=#111111;strokeColor=none;size=3.8021390374331503;container=0;" vertex="1" parent="y5vkwGOPZt_xuMyuW4bd-28">
          <mxGeometry x="10" y="8" width="16" height="6" as="geometry" />
        </mxCell>
        <mxCell id="y5vkwGOPZt_xuMyuW4bd-36" value="" style="shape=hexagon;perimeter=hexagonPerimeter2;whiteSpace=wrap;html=1;fixedSize=1;rounded=0;strokeWidth=1;align=center;verticalAlign=middle;fontFamily=Helvetica;fontSize=12;fontColor=default;resizable=1;fillColor=#111111;strokeColor=none;size=3.8021390374331503;container=0;" vertex="1" parent="y5vkwGOPZt_xuMyuW4bd-28">
          <mxGeometry x="23" y="4.5" width="16" height="6" as="geometry" />
        </mxCell>
        <mxCell id="y5vkwGOPZt_xuMyuW4bd-37" value="" style="shape=hexagon;perimeter=hexagonPerimeter2;whiteSpace=wrap;html=1;fixedSize=1;rounded=0;strokeWidth=1;align=center;verticalAlign=middle;fontFamily=Helvetica;fontSize=12;fontColor=default;resizable=1;fillColor=#111111;strokeColor=none;size=3.8021390374331503;container=0;" vertex="1" parent="y5vkwGOPZt_xuMyuW4bd-28">
          <mxGeometry x="36" y="8" width="16" height="6" as="geometry" />
        </mxCell>
        <mxCell id="y5vkwGOPZt_xuMyuW4bd-38" value="" style="shape=hexagon;perimeter=hexagonPerimeter2;whiteSpace=wrap;html=1;fixedSize=1;rounded=0;strokeWidth=1;align=center;verticalAlign=middle;fontFamily=Helvetica;fontSize=12;fontColor=default;resizable=1;fillColor=#111111;strokeColor=none;size=3.8021390374331503;container=0;" vertex="1" parent="y5vkwGOPZt_xuMyuW4bd-28">
          <mxGeometry x="36" y="1" width="16" height="6" as="geometry" />
        </mxCell>
        <mxCell id="y5vkwGOPZt_xuMyuW4bd-39" value="" style="shape=trapezoid;perimeter=trapezoidPerimeter;whiteSpace=wrap;html=1;fixedSize=1;rounded=0;strokeWidth=1;align=center;verticalAlign=middle;fontFamily=Helvetica;fontSize=12;fontColor=default;resizable=1;fillColor=#111111;strokeColor=none;size=3.799999999999997;container=0;" vertex="1" parent="y5vkwGOPZt_xuMyuW4bd-28">
          <mxGeometry x="23" y="11.5" width="16" height="3" as="geometry" />
        </mxCell>
        <mxCell id="y5vkwGOPZt_xuMyuW4bd-40" value="" style="shape=trapezoid;perimeter=trapezoidPerimeter;whiteSpace=wrap;html=1;fixedSize=1;rounded=0;strokeWidth=1;align=center;verticalAlign=middle;fontFamily=Helvetica;fontSize=12;fontColor=default;resizable=1;fillColor=#111111;strokeColor=none;size=3.799999999999997;flipV=1;container=0;" vertex="1" parent="y5vkwGOPZt_xuMyuW4bd-28">
          <mxGeometry x="23" y="0.5" width="16" height="3" as="geometry" />
        </mxCell>
        <mxCell id="y5vkwGOPZt_xuMyuW4bd-41" value="" style="rounded=1;whiteSpace=wrap;html=1;strokeColor=none;fillColor=#008a00;fontColor=#ffffff;container=0;" vertex="1" parent="y5vkwGOPZt_xuMyuW4bd-28">
          <mxGeometry x="76.5" y="10" width="2" height="3" as="geometry" />
        </mxCell>
        <mxCell id="y5vkwGOPZt_xuMyuW4bd-42" value="" style="rounded=1;whiteSpace=wrap;html=1;strokeColor=none;fillColor=#0050ef;fontColor=#ffffff;container=0;" vertex="1" parent="y5vkwGOPZt_xuMyuW4bd-28">
          <mxGeometry x="76.5" y="2" width="2" height="3" as="geometry" />
        </mxCell>
        <mxCell id="y5vkwGOPZt_xuMyuW4bd-43" value="" style="shape=loopLimit;whiteSpace=wrap;html=1;rounded=0;strokeWidth=1;align=center;verticalAlign=middle;fontFamily=Helvetica;fontSize=12;fontColor=default;resizable=1;fillColor=#111111;strokeColor=none;rotation=90;size=4;container=0;" vertex="1" parent="y5vkwGOPZt_xuMyuW4bd-28">
          <mxGeometry x="-2.5" y="2.5" width="15" height="10" as="geometry" />
        </mxCell>
        <mxCell id="y5vkwGOPZt_xuMyuW4bd-44" value="" style="shape=hexagon;perimeter=hexagonPerimeter2;whiteSpace=wrap;html=1;fixedSize=1;rounded=0;strokeWidth=1;align=center;verticalAlign=middle;fontFamily=Helvetica;fontSize=12;fontColor=default;resizable=1;fillColor=#111111;strokeColor=none;size=3.8021390374331503;container=0;" vertex="1" parent="y5vkwGOPZt_xuMyuW4bd-28">
          <mxGeometry x="49" y="4.5" width="16" height="6" as="geometry" />
        </mxCell>
        <mxCell id="y5vkwGOPZt_xuMyuW4bd-45" value="" style="shape=trapezoid;perimeter=trapezoidPerimeter;whiteSpace=wrap;html=1;fixedSize=1;rounded=0;strokeWidth=1;align=center;verticalAlign=middle;fontFamily=Helvetica;fontSize=12;fontColor=default;resizable=1;fillColor=#111111;strokeColor=none;size=3.799999999999997;container=0;" vertex="1" parent="y5vkwGOPZt_xuMyuW4bd-28">
          <mxGeometry x="49" y="11.5" width="16" height="3" as="geometry" />
        </mxCell>
        <mxCell id="y5vkwGOPZt_xuMyuW4bd-46" value="" style="shape=trapezoid;perimeter=trapezoidPerimeter;whiteSpace=wrap;html=1;fixedSize=1;rounded=0;strokeWidth=1;align=center;verticalAlign=middle;fontFamily=Helvetica;fontSize=12;fontColor=default;resizable=1;fillColor=#111111;strokeColor=none;size=3.799999999999997;flipV=1;container=0;" vertex="1" parent="y5vkwGOPZt_xuMyuW4bd-28">
          <mxGeometry x="49" y="0.5" width="16" height="3" as="geometry" />
        </mxCell>
        <mxCell id="y5vkwGOPZt_xuMyuW4bd-47" value="" style="whiteSpace=wrap;html=1;rounded=0;strokeWidth=1;align=center;verticalAlign=middle;fontFamily=Helvetica;fontSize=12;fontColor=default;resizable=1;fillColor=#222222;strokeColor=none;container=0;" vertex="1" parent="y5vkwGOPZt_xuMyuW4bd-28">
          <mxGeometry x="11" width="60.5" height="1" as="geometry" />
        </mxCell>
        <mxCell id="y5vkwGOPZt_xuMyuW4bd-48" value="" style="whiteSpace=wrap;html=1;rounded=0;strokeWidth=1;align=center;verticalAlign=middle;fontFamily=Helvetica;fontSize=12;fontColor=default;resizable=1;fillColor=#222222;strokeColor=none;container=0;" vertex="1" parent="y5vkwGOPZt_xuMyuW4bd-28">
          <mxGeometry x="14" y="14" width="58.5" height="1" as="geometry" />
        </mxCell>
        <mxCell id="y5vkwGOPZt_xuMyuW4bd-49" value="" style="triangle;whiteSpace=wrap;html=1;rounded=0;strokeWidth=0.01;align=center;verticalAlign=middle;fontFamily=Helvetica;fontSize=12;fontColor=default;resizable=1;fillColor=#111111;strokeColor=none;direction=west;container=0;rotation=0;" vertex="1" parent="y5vkwGOPZt_xuMyuW4bd-28">
          <mxGeometry x="62.2" y="1" width="3.8" height="6" as="geometry" />
        </mxCell>
        <mxCell id="y5vkwGOPZt_xuMyuW4bd-50" value="" style="triangle;whiteSpace=wrap;html=1;rounded=0;strokeWidth=0.01;align=center;verticalAlign=middle;fontFamily=Helvetica;fontSize=12;fontColor=default;resizable=1;fillColor=#111111;strokeColor=none;direction=west;container=0;rotation=0;" vertex="1" parent="y5vkwGOPZt_xuMyuW4bd-28">
          <mxGeometry x="62.2" y="8" width="3.8" height="6" as="geometry" />
        </mxCell>
        <mxCell id="y5vkwGOPZt_xuMyuW4bd-51" value="" style="group" vertex="1" connectable="0" parent="y5vkwGOPZt_xuMyuW4bd-235">
          <mxGeometry x="102.5" y="9.950000000000003" width="80" height="15" as="geometry" />
        </mxCell>
        <mxCell id="y5vkwGOPZt_xuMyuW4bd-52" value="" style="rounded=0;whiteSpace=wrap;html=1;strokeColor=none;fillColor=#222222;strokeWidth=1;movable=1;resizable=1;rotatable=1;deletable=1;editable=1;locked=0;connectable=1;container=0;" vertex="1" parent="y5vkwGOPZt_xuMyuW4bd-51">
          <mxGeometry width="80" height="15" as="geometry" />
        </mxCell>
        <mxCell id="y5vkwGOPZt_xuMyuW4bd-53" value="" style="whiteSpace=wrap;html=1;rounded=0;strokeWidth=1;align=center;verticalAlign=middle;fontFamily=Helvetica;fontSize=12;fontColor=default;resizable=1;fillColor=#333333;strokeColor=none;container=0;" vertex="1" parent="y5vkwGOPZt_xuMyuW4bd-51">
          <mxGeometry x="1" y="4" width="66" height="7" as="geometry" />
        </mxCell>
        <mxCell id="y5vkwGOPZt_xuMyuW4bd-54" value="" style="shape=hexagon;perimeter=hexagonPerimeter2;whiteSpace=wrap;html=1;fixedSize=1;rounded=0;strokeWidth=1;align=center;verticalAlign=middle;fontFamily=Helvetica;fontSize=12;fontColor=default;resizable=1;fillColor=#111111;strokeColor=none;size=3.8021390374331503;container=0;" vertex="1" parent="y5vkwGOPZt_xuMyuW4bd-51">
          <mxGeometry x="10" y="1" width="16" height="6" as="geometry" />
        </mxCell>
        <mxCell id="y5vkwGOPZt_xuMyuW4bd-55" value="" style="whiteSpace=wrap;html=1;rounded=0;strokeWidth=1;align=center;verticalAlign=middle;fontFamily=Helvetica;fontSize=12;fontColor=default;resizable=1;fillColor=#111111;strokeColor=none;container=0;" vertex="1" parent="y5vkwGOPZt_xuMyuW4bd-51">
          <mxGeometry x="67" y="1" width="5" height="13" as="geometry" />
        </mxCell>
        <mxCell id="y5vkwGOPZt_xuMyuW4bd-56" value="" style="whiteSpace=wrap;html=1;rounded=0;strokeWidth=1;align=center;verticalAlign=middle;fontFamily=Helvetica;fontSize=12;fontColor=default;resizable=1;fillColor=#333333;strokeColor=none;container=0;" vertex="1" parent="y5vkwGOPZt_xuMyuW4bd-51">
          <mxGeometry x="72" y="1" width="4" height="13" as="geometry" />
        </mxCell>
        <mxCell id="y5vkwGOPZt_xuMyuW4bd-57" value="" style="triangle;whiteSpace=wrap;html=1;strokeColor=#111111;rounded=0;strokeWidth=0.1;align=center;verticalAlign=middle;fontFamily=Helvetica;fontSize=12;fontColor=default;resizable=1;fillColor=#333333;rotation=-180;container=0;" vertex="1" parent="y5vkwGOPZt_xuMyuW4bd-51">
          <mxGeometry x="72.5" y="6" width="3" height="3" as="geometry" />
        </mxCell>
        <mxCell id="y5vkwGOPZt_xuMyuW4bd-58" value="" style="shape=hexagon;perimeter=hexagonPerimeter2;whiteSpace=wrap;html=1;fixedSize=1;rounded=0;strokeWidth=1;align=center;verticalAlign=middle;fontFamily=Helvetica;fontSize=12;fontColor=default;resizable=1;fillColor=#111111;strokeColor=none;size=3.8021390374331503;container=0;" vertex="1" parent="y5vkwGOPZt_xuMyuW4bd-51">
          <mxGeometry x="10" y="8" width="16" height="6" as="geometry" />
        </mxCell>
        <mxCell id="y5vkwGOPZt_xuMyuW4bd-59" value="" style="shape=hexagon;perimeter=hexagonPerimeter2;whiteSpace=wrap;html=1;fixedSize=1;rounded=0;strokeWidth=1;align=center;verticalAlign=middle;fontFamily=Helvetica;fontSize=12;fontColor=default;resizable=1;fillColor=#111111;strokeColor=none;size=3.8021390374331503;container=0;" vertex="1" parent="y5vkwGOPZt_xuMyuW4bd-51">
          <mxGeometry x="23" y="4.5" width="16" height="6" as="geometry" />
        </mxCell>
        <mxCell id="y5vkwGOPZt_xuMyuW4bd-60" value="" style="shape=hexagon;perimeter=hexagonPerimeter2;whiteSpace=wrap;html=1;fixedSize=1;rounded=0;strokeWidth=1;align=center;verticalAlign=middle;fontFamily=Helvetica;fontSize=12;fontColor=default;resizable=1;fillColor=#111111;strokeColor=none;size=3.8021390374331503;container=0;" vertex="1" parent="y5vkwGOPZt_xuMyuW4bd-51">
          <mxGeometry x="36" y="8" width="16" height="6" as="geometry" />
        </mxCell>
        <mxCell id="y5vkwGOPZt_xuMyuW4bd-61" value="" style="shape=hexagon;perimeter=hexagonPerimeter2;whiteSpace=wrap;html=1;fixedSize=1;rounded=0;strokeWidth=1;align=center;verticalAlign=middle;fontFamily=Helvetica;fontSize=12;fontColor=default;resizable=1;fillColor=#111111;strokeColor=none;size=3.8021390374331503;container=0;" vertex="1" parent="y5vkwGOPZt_xuMyuW4bd-51">
          <mxGeometry x="36" y="1" width="16" height="6" as="geometry" />
        </mxCell>
        <mxCell id="y5vkwGOPZt_xuMyuW4bd-62" value="" style="shape=trapezoid;perimeter=trapezoidPerimeter;whiteSpace=wrap;html=1;fixedSize=1;rounded=0;strokeWidth=1;align=center;verticalAlign=middle;fontFamily=Helvetica;fontSize=12;fontColor=default;resizable=1;fillColor=#111111;strokeColor=none;size=3.799999999999997;container=0;" vertex="1" parent="y5vkwGOPZt_xuMyuW4bd-51">
          <mxGeometry x="23" y="11.5" width="16" height="3" as="geometry" />
        </mxCell>
        <mxCell id="y5vkwGOPZt_xuMyuW4bd-63" value="" style="shape=trapezoid;perimeter=trapezoidPerimeter;whiteSpace=wrap;html=1;fixedSize=1;rounded=0;strokeWidth=1;align=center;verticalAlign=middle;fontFamily=Helvetica;fontSize=12;fontColor=default;resizable=1;fillColor=#111111;strokeColor=none;size=3.799999999999997;flipV=1;container=0;" vertex="1" parent="y5vkwGOPZt_xuMyuW4bd-51">
          <mxGeometry x="23" y="0.5" width="16" height="3" as="geometry" />
        </mxCell>
        <mxCell id="y5vkwGOPZt_xuMyuW4bd-64" value="" style="rounded=1;whiteSpace=wrap;html=1;strokeColor=none;fillColor=#008a00;fontColor=#ffffff;container=0;" vertex="1" parent="y5vkwGOPZt_xuMyuW4bd-51">
          <mxGeometry x="76.5" y="10" width="2" height="3" as="geometry" />
        </mxCell>
        <mxCell id="y5vkwGOPZt_xuMyuW4bd-65" value="" style="rounded=1;whiteSpace=wrap;html=1;strokeColor=none;fillColor=#0050ef;fontColor=#ffffff;container=0;" vertex="1" parent="y5vkwGOPZt_xuMyuW4bd-51">
          <mxGeometry x="76.5" y="2" width="2" height="3" as="geometry" />
        </mxCell>
        <mxCell id="y5vkwGOPZt_xuMyuW4bd-66" value="" style="shape=loopLimit;whiteSpace=wrap;html=1;rounded=0;strokeWidth=1;align=center;verticalAlign=middle;fontFamily=Helvetica;fontSize=12;fontColor=default;resizable=1;fillColor=#111111;strokeColor=none;rotation=90;size=4;container=0;" vertex="1" parent="y5vkwGOPZt_xuMyuW4bd-51">
          <mxGeometry x="-2.5" y="2.5" width="15" height="10" as="geometry" />
        </mxCell>
        <mxCell id="y5vkwGOPZt_xuMyuW4bd-67" value="" style="shape=hexagon;perimeter=hexagonPerimeter2;whiteSpace=wrap;html=1;fixedSize=1;rounded=0;strokeWidth=1;align=center;verticalAlign=middle;fontFamily=Helvetica;fontSize=12;fontColor=default;resizable=1;fillColor=#111111;strokeColor=none;size=3.8021390374331503;container=0;" vertex="1" parent="y5vkwGOPZt_xuMyuW4bd-51">
          <mxGeometry x="49" y="4.5" width="16" height="6" as="geometry" />
        </mxCell>
        <mxCell id="y5vkwGOPZt_xuMyuW4bd-68" value="" style="shape=trapezoid;perimeter=trapezoidPerimeter;whiteSpace=wrap;html=1;fixedSize=1;rounded=0;strokeWidth=1;align=center;verticalAlign=middle;fontFamily=Helvetica;fontSize=12;fontColor=default;resizable=1;fillColor=#111111;strokeColor=none;size=3.799999999999997;container=0;" vertex="1" parent="y5vkwGOPZt_xuMyuW4bd-51">
          <mxGeometry x="49" y="11.5" width="16" height="3" as="geometry" />
        </mxCell>
        <mxCell id="y5vkwGOPZt_xuMyuW4bd-69" value="" style="shape=trapezoid;perimeter=trapezoidPerimeter;whiteSpace=wrap;html=1;fixedSize=1;rounded=0;strokeWidth=1;align=center;verticalAlign=middle;fontFamily=Helvetica;fontSize=12;fontColor=default;resizable=1;fillColor=#111111;strokeColor=none;size=3.799999999999997;flipV=1;container=0;" vertex="1" parent="y5vkwGOPZt_xuMyuW4bd-51">
          <mxGeometry x="49" y="0.5" width="16" height="3" as="geometry" />
        </mxCell>
        <mxCell id="y5vkwGOPZt_xuMyuW4bd-70" value="" style="whiteSpace=wrap;html=1;rounded=0;strokeWidth=1;align=center;verticalAlign=middle;fontFamily=Helvetica;fontSize=12;fontColor=default;resizable=1;fillColor=#222222;strokeColor=none;container=0;" vertex="1" parent="y5vkwGOPZt_xuMyuW4bd-51">
          <mxGeometry x="11" width="60.5" height="1" as="geometry" />
        </mxCell>
        <mxCell id="y5vkwGOPZt_xuMyuW4bd-71" value="" style="whiteSpace=wrap;html=1;rounded=0;strokeWidth=1;align=center;verticalAlign=middle;fontFamily=Helvetica;fontSize=12;fontColor=default;resizable=1;fillColor=#222222;strokeColor=none;container=0;" vertex="1" parent="y5vkwGOPZt_xuMyuW4bd-51">
          <mxGeometry x="14" y="14" width="58.5" height="1" as="geometry" />
        </mxCell>
        <mxCell id="y5vkwGOPZt_xuMyuW4bd-72" value="" style="triangle;whiteSpace=wrap;html=1;rounded=0;strokeWidth=0.01;align=center;verticalAlign=middle;fontFamily=Helvetica;fontSize=12;fontColor=default;resizable=1;fillColor=#111111;strokeColor=none;direction=west;container=0;rotation=0;" vertex="1" parent="y5vkwGOPZt_xuMyuW4bd-51">
          <mxGeometry x="62.2" y="1" width="3.8" height="6" as="geometry" />
        </mxCell>
        <mxCell id="y5vkwGOPZt_xuMyuW4bd-73" value="" style="triangle;whiteSpace=wrap;html=1;rounded=0;strokeWidth=0.01;align=center;verticalAlign=middle;fontFamily=Helvetica;fontSize=12;fontColor=default;resizable=1;fillColor=#111111;strokeColor=none;direction=west;container=0;rotation=0;" vertex="1" parent="y5vkwGOPZt_xuMyuW4bd-51">
          <mxGeometry x="62.2" y="8" width="3.8" height="6" as="geometry" />
        </mxCell>
        <mxCell id="y5vkwGOPZt_xuMyuW4bd-74" value="" style="group" vertex="1" connectable="0" parent="y5vkwGOPZt_xuMyuW4bd-235">
          <mxGeometry x="102.5" y="26.950000000000003" width="80" height="15" as="geometry" />
        </mxCell>
        <mxCell id="y5vkwGOPZt_xuMyuW4bd-75" value="" style="rounded=0;whiteSpace=wrap;html=1;strokeColor=none;fillColor=#222222;strokeWidth=1;movable=1;resizable=1;rotatable=1;deletable=1;editable=1;locked=0;connectable=1;container=0;" vertex="1" parent="y5vkwGOPZt_xuMyuW4bd-74">
          <mxGeometry width="80" height="15" as="geometry" />
        </mxCell>
        <mxCell id="y5vkwGOPZt_xuMyuW4bd-76" value="" style="whiteSpace=wrap;html=1;rounded=0;strokeWidth=1;align=center;verticalAlign=middle;fontFamily=Helvetica;fontSize=12;fontColor=default;resizable=1;fillColor=#333333;strokeColor=none;container=0;" vertex="1" parent="y5vkwGOPZt_xuMyuW4bd-74">
          <mxGeometry x="1" y="4" width="66" height="7" as="geometry" />
        </mxCell>
        <mxCell id="y5vkwGOPZt_xuMyuW4bd-77" value="" style="shape=hexagon;perimeter=hexagonPerimeter2;whiteSpace=wrap;html=1;fixedSize=1;rounded=0;strokeWidth=1;align=center;verticalAlign=middle;fontFamily=Helvetica;fontSize=12;fontColor=default;resizable=1;fillColor=#111111;strokeColor=none;size=3.8021390374331503;container=0;" vertex="1" parent="y5vkwGOPZt_xuMyuW4bd-74">
          <mxGeometry x="10" y="1" width="16" height="6" as="geometry" />
        </mxCell>
        <mxCell id="y5vkwGOPZt_xuMyuW4bd-78" value="" style="whiteSpace=wrap;html=1;rounded=0;strokeWidth=1;align=center;verticalAlign=middle;fontFamily=Helvetica;fontSize=12;fontColor=default;resizable=1;fillColor=#111111;strokeColor=none;container=0;" vertex="1" parent="y5vkwGOPZt_xuMyuW4bd-74">
          <mxGeometry x="67" y="1" width="5" height="13" as="geometry" />
        </mxCell>
        <mxCell id="y5vkwGOPZt_xuMyuW4bd-79" value="" style="whiteSpace=wrap;html=1;rounded=0;strokeWidth=1;align=center;verticalAlign=middle;fontFamily=Helvetica;fontSize=12;fontColor=default;resizable=1;fillColor=#333333;strokeColor=none;container=0;" vertex="1" parent="y5vkwGOPZt_xuMyuW4bd-74">
          <mxGeometry x="72" y="1" width="4" height="13" as="geometry" />
        </mxCell>
        <mxCell id="y5vkwGOPZt_xuMyuW4bd-80" value="" style="triangle;whiteSpace=wrap;html=1;strokeColor=#111111;rounded=0;strokeWidth=0.1;align=center;verticalAlign=middle;fontFamily=Helvetica;fontSize=12;fontColor=default;resizable=1;fillColor=#333333;rotation=-180;container=0;" vertex="1" parent="y5vkwGOPZt_xuMyuW4bd-74">
          <mxGeometry x="72.5" y="6" width="3" height="3" as="geometry" />
        </mxCell>
        <mxCell id="y5vkwGOPZt_xuMyuW4bd-81" value="" style="shape=hexagon;perimeter=hexagonPerimeter2;whiteSpace=wrap;html=1;fixedSize=1;rounded=0;strokeWidth=1;align=center;verticalAlign=middle;fontFamily=Helvetica;fontSize=12;fontColor=default;resizable=1;fillColor=#111111;strokeColor=none;size=3.8021390374331503;container=0;" vertex="1" parent="y5vkwGOPZt_xuMyuW4bd-74">
          <mxGeometry x="10" y="8" width="16" height="6" as="geometry" />
        </mxCell>
        <mxCell id="y5vkwGOPZt_xuMyuW4bd-82" value="" style="shape=hexagon;perimeter=hexagonPerimeter2;whiteSpace=wrap;html=1;fixedSize=1;rounded=0;strokeWidth=1;align=center;verticalAlign=middle;fontFamily=Helvetica;fontSize=12;fontColor=default;resizable=1;fillColor=#111111;strokeColor=none;size=3.8021390374331503;container=0;" vertex="1" parent="y5vkwGOPZt_xuMyuW4bd-74">
          <mxGeometry x="23" y="4.5" width="16" height="6" as="geometry" />
        </mxCell>
        <mxCell id="y5vkwGOPZt_xuMyuW4bd-83" value="" style="shape=hexagon;perimeter=hexagonPerimeter2;whiteSpace=wrap;html=1;fixedSize=1;rounded=0;strokeWidth=1;align=center;verticalAlign=middle;fontFamily=Helvetica;fontSize=12;fontColor=default;resizable=1;fillColor=#111111;strokeColor=none;size=3.8021390374331503;container=0;" vertex="1" parent="y5vkwGOPZt_xuMyuW4bd-74">
          <mxGeometry x="36" y="8" width="16" height="6" as="geometry" />
        </mxCell>
        <mxCell id="y5vkwGOPZt_xuMyuW4bd-84" value="" style="shape=hexagon;perimeter=hexagonPerimeter2;whiteSpace=wrap;html=1;fixedSize=1;rounded=0;strokeWidth=1;align=center;verticalAlign=middle;fontFamily=Helvetica;fontSize=12;fontColor=default;resizable=1;fillColor=#111111;strokeColor=none;size=3.8021390374331503;container=0;" vertex="1" parent="y5vkwGOPZt_xuMyuW4bd-74">
          <mxGeometry x="36" y="1" width="16" height="6" as="geometry" />
        </mxCell>
        <mxCell id="y5vkwGOPZt_xuMyuW4bd-85" value="" style="shape=trapezoid;perimeter=trapezoidPerimeter;whiteSpace=wrap;html=1;fixedSize=1;rounded=0;strokeWidth=1;align=center;verticalAlign=middle;fontFamily=Helvetica;fontSize=12;fontColor=default;resizable=1;fillColor=#111111;strokeColor=none;size=3.799999999999997;container=0;" vertex="1" parent="y5vkwGOPZt_xuMyuW4bd-74">
          <mxGeometry x="23" y="11.5" width="16" height="3" as="geometry" />
        </mxCell>
        <mxCell id="y5vkwGOPZt_xuMyuW4bd-86" value="" style="shape=trapezoid;perimeter=trapezoidPerimeter;whiteSpace=wrap;html=1;fixedSize=1;rounded=0;strokeWidth=1;align=center;verticalAlign=middle;fontFamily=Helvetica;fontSize=12;fontColor=default;resizable=1;fillColor=#111111;strokeColor=none;size=3.799999999999997;flipV=1;container=0;" vertex="1" parent="y5vkwGOPZt_xuMyuW4bd-74">
          <mxGeometry x="23" y="0.5" width="16" height="3" as="geometry" />
        </mxCell>
        <mxCell id="y5vkwGOPZt_xuMyuW4bd-87" value="" style="rounded=1;whiteSpace=wrap;html=1;strokeColor=none;fillColor=#008a00;fontColor=#ffffff;container=0;" vertex="1" parent="y5vkwGOPZt_xuMyuW4bd-74">
          <mxGeometry x="76.5" y="10" width="2" height="3" as="geometry" />
        </mxCell>
        <mxCell id="y5vkwGOPZt_xuMyuW4bd-88" value="" style="rounded=1;whiteSpace=wrap;html=1;strokeColor=none;fillColor=#0050ef;fontColor=#ffffff;container=0;" vertex="1" parent="y5vkwGOPZt_xuMyuW4bd-74">
          <mxGeometry x="76.5" y="2" width="2" height="3" as="geometry" />
        </mxCell>
        <mxCell id="y5vkwGOPZt_xuMyuW4bd-89" value="" style="shape=loopLimit;whiteSpace=wrap;html=1;rounded=0;strokeWidth=1;align=center;verticalAlign=middle;fontFamily=Helvetica;fontSize=12;fontColor=default;resizable=1;fillColor=#111111;strokeColor=none;rotation=90;size=4;container=0;" vertex="1" parent="y5vkwGOPZt_xuMyuW4bd-74">
          <mxGeometry x="-2.5" y="2.5" width="15" height="10" as="geometry" />
        </mxCell>
        <mxCell id="y5vkwGOPZt_xuMyuW4bd-90" value="" style="shape=hexagon;perimeter=hexagonPerimeter2;whiteSpace=wrap;html=1;fixedSize=1;rounded=0;strokeWidth=1;align=center;verticalAlign=middle;fontFamily=Helvetica;fontSize=12;fontColor=default;resizable=1;fillColor=#111111;strokeColor=none;size=3.8021390374331503;container=0;" vertex="1" parent="y5vkwGOPZt_xuMyuW4bd-74">
          <mxGeometry x="49" y="4.5" width="16" height="6" as="geometry" />
        </mxCell>
        <mxCell id="y5vkwGOPZt_xuMyuW4bd-91" value="" style="shape=trapezoid;perimeter=trapezoidPerimeter;whiteSpace=wrap;html=1;fixedSize=1;rounded=0;strokeWidth=1;align=center;verticalAlign=middle;fontFamily=Helvetica;fontSize=12;fontColor=default;resizable=1;fillColor=#111111;strokeColor=none;size=3.799999999999997;container=0;" vertex="1" parent="y5vkwGOPZt_xuMyuW4bd-74">
          <mxGeometry x="49" y="11.5" width="16" height="3" as="geometry" />
        </mxCell>
        <mxCell id="y5vkwGOPZt_xuMyuW4bd-92" value="" style="shape=trapezoid;perimeter=trapezoidPerimeter;whiteSpace=wrap;html=1;fixedSize=1;rounded=0;strokeWidth=1;align=center;verticalAlign=middle;fontFamily=Helvetica;fontSize=12;fontColor=default;resizable=1;fillColor=#111111;strokeColor=none;size=3.799999999999997;flipV=1;container=0;" vertex="1" parent="y5vkwGOPZt_xuMyuW4bd-74">
          <mxGeometry x="49" y="0.5" width="16" height="3" as="geometry" />
        </mxCell>
        <mxCell id="y5vkwGOPZt_xuMyuW4bd-93" value="" style="whiteSpace=wrap;html=1;rounded=0;strokeWidth=1;align=center;verticalAlign=middle;fontFamily=Helvetica;fontSize=12;fontColor=default;resizable=1;fillColor=#222222;strokeColor=none;container=0;" vertex="1" parent="y5vkwGOPZt_xuMyuW4bd-74">
          <mxGeometry x="11" width="60.5" height="1" as="geometry" />
        </mxCell>
        <mxCell id="y5vkwGOPZt_xuMyuW4bd-94" value="" style="whiteSpace=wrap;html=1;rounded=0;strokeWidth=1;align=center;verticalAlign=middle;fontFamily=Helvetica;fontSize=12;fontColor=default;resizable=1;fillColor=#222222;strokeColor=none;container=0;" vertex="1" parent="y5vkwGOPZt_xuMyuW4bd-74">
          <mxGeometry x="14" y="14" width="58.5" height="1" as="geometry" />
        </mxCell>
        <mxCell id="y5vkwGOPZt_xuMyuW4bd-95" value="" style="triangle;whiteSpace=wrap;html=1;rounded=0;strokeWidth=0.01;align=center;verticalAlign=middle;fontFamily=Helvetica;fontSize=12;fontColor=default;resizable=1;fillColor=#111111;strokeColor=none;direction=west;container=0;rotation=0;" vertex="1" parent="y5vkwGOPZt_xuMyuW4bd-74">
          <mxGeometry x="62.2" y="1" width="3.8" height="6" as="geometry" />
        </mxCell>
        <mxCell id="y5vkwGOPZt_xuMyuW4bd-96" value="" style="triangle;whiteSpace=wrap;html=1;rounded=0;strokeWidth=0.01;align=center;verticalAlign=middle;fontFamily=Helvetica;fontSize=12;fontColor=default;resizable=1;fillColor=#111111;strokeColor=none;direction=west;container=0;rotation=0;" vertex="1" parent="y5vkwGOPZt_xuMyuW4bd-74">
          <mxGeometry x="62.2" y="8" width="3.8" height="6" as="geometry" />
        </mxCell>
        <mxCell id="y5vkwGOPZt_xuMyuW4bd-97" value="" style="group" vertex="1" connectable="0" parent="y5vkwGOPZt_xuMyuW4bd-235">
          <mxGeometry x="184.5" y="9.950000000000003" width="80" height="15" as="geometry" />
        </mxCell>
        <mxCell id="y5vkwGOPZt_xuMyuW4bd-98" value="" style="rounded=0;whiteSpace=wrap;html=1;strokeColor=none;fillColor=#222222;strokeWidth=1;movable=1;resizable=1;rotatable=1;deletable=1;editable=1;locked=0;connectable=1;container=0;" vertex="1" parent="y5vkwGOPZt_xuMyuW4bd-97">
          <mxGeometry width="80" height="15" as="geometry" />
        </mxCell>
        <mxCell id="y5vkwGOPZt_xuMyuW4bd-99" value="" style="whiteSpace=wrap;html=1;rounded=0;strokeWidth=1;align=center;verticalAlign=middle;fontFamily=Helvetica;fontSize=12;fontColor=default;resizable=1;fillColor=#333333;strokeColor=none;container=0;" vertex="1" parent="y5vkwGOPZt_xuMyuW4bd-97">
          <mxGeometry x="1" y="4" width="66" height="7" as="geometry" />
        </mxCell>
        <mxCell id="y5vkwGOPZt_xuMyuW4bd-100" value="" style="shape=hexagon;perimeter=hexagonPerimeter2;whiteSpace=wrap;html=1;fixedSize=1;rounded=0;strokeWidth=1;align=center;verticalAlign=middle;fontFamily=Helvetica;fontSize=12;fontColor=default;resizable=1;fillColor=#111111;strokeColor=none;size=3.8021390374331503;container=0;" vertex="1" parent="y5vkwGOPZt_xuMyuW4bd-97">
          <mxGeometry x="10" y="1" width="16" height="6" as="geometry" />
        </mxCell>
        <mxCell id="y5vkwGOPZt_xuMyuW4bd-101" value="" style="whiteSpace=wrap;html=1;rounded=0;strokeWidth=1;align=center;verticalAlign=middle;fontFamily=Helvetica;fontSize=12;fontColor=default;resizable=1;fillColor=#111111;strokeColor=none;container=0;" vertex="1" parent="y5vkwGOPZt_xuMyuW4bd-97">
          <mxGeometry x="67" y="1" width="5" height="13" as="geometry" />
        </mxCell>
        <mxCell id="y5vkwGOPZt_xuMyuW4bd-102" value="" style="whiteSpace=wrap;html=1;rounded=0;strokeWidth=1;align=center;verticalAlign=middle;fontFamily=Helvetica;fontSize=12;fontColor=default;resizable=1;fillColor=#333333;strokeColor=none;container=0;" vertex="1" parent="y5vkwGOPZt_xuMyuW4bd-97">
          <mxGeometry x="72" y="1" width="4" height="13" as="geometry" />
        </mxCell>
        <mxCell id="y5vkwGOPZt_xuMyuW4bd-103" value="" style="triangle;whiteSpace=wrap;html=1;strokeColor=#111111;rounded=0;strokeWidth=0.1;align=center;verticalAlign=middle;fontFamily=Helvetica;fontSize=12;fontColor=default;resizable=1;fillColor=#333333;rotation=-180;container=0;" vertex="1" parent="y5vkwGOPZt_xuMyuW4bd-97">
          <mxGeometry x="72.5" y="6" width="3" height="3" as="geometry" />
        </mxCell>
        <mxCell id="y5vkwGOPZt_xuMyuW4bd-104" value="" style="shape=hexagon;perimeter=hexagonPerimeter2;whiteSpace=wrap;html=1;fixedSize=1;rounded=0;strokeWidth=1;align=center;verticalAlign=middle;fontFamily=Helvetica;fontSize=12;fontColor=default;resizable=1;fillColor=#111111;strokeColor=none;size=3.8021390374331503;container=0;" vertex="1" parent="y5vkwGOPZt_xuMyuW4bd-97">
          <mxGeometry x="10" y="8" width="16" height="6" as="geometry" />
        </mxCell>
        <mxCell id="y5vkwGOPZt_xuMyuW4bd-105" value="" style="shape=hexagon;perimeter=hexagonPerimeter2;whiteSpace=wrap;html=1;fixedSize=1;rounded=0;strokeWidth=1;align=center;verticalAlign=middle;fontFamily=Helvetica;fontSize=12;fontColor=default;resizable=1;fillColor=#111111;strokeColor=none;size=3.8021390374331503;container=0;" vertex="1" parent="y5vkwGOPZt_xuMyuW4bd-97">
          <mxGeometry x="23" y="4.5" width="16" height="6" as="geometry" />
        </mxCell>
        <mxCell id="y5vkwGOPZt_xuMyuW4bd-106" value="" style="shape=hexagon;perimeter=hexagonPerimeter2;whiteSpace=wrap;html=1;fixedSize=1;rounded=0;strokeWidth=1;align=center;verticalAlign=middle;fontFamily=Helvetica;fontSize=12;fontColor=default;resizable=1;fillColor=#111111;strokeColor=none;size=3.8021390374331503;container=0;" vertex="1" parent="y5vkwGOPZt_xuMyuW4bd-97">
          <mxGeometry x="36" y="8" width="16" height="6" as="geometry" />
        </mxCell>
        <mxCell id="y5vkwGOPZt_xuMyuW4bd-107" value="" style="shape=hexagon;perimeter=hexagonPerimeter2;whiteSpace=wrap;html=1;fixedSize=1;rounded=0;strokeWidth=1;align=center;verticalAlign=middle;fontFamily=Helvetica;fontSize=12;fontColor=default;resizable=1;fillColor=#111111;strokeColor=none;size=3.8021390374331503;container=0;" vertex="1" parent="y5vkwGOPZt_xuMyuW4bd-97">
          <mxGeometry x="36" y="1" width="16" height="6" as="geometry" />
        </mxCell>
        <mxCell id="y5vkwGOPZt_xuMyuW4bd-108" value="" style="shape=trapezoid;perimeter=trapezoidPerimeter;whiteSpace=wrap;html=1;fixedSize=1;rounded=0;strokeWidth=1;align=center;verticalAlign=middle;fontFamily=Helvetica;fontSize=12;fontColor=default;resizable=1;fillColor=#111111;strokeColor=none;size=3.799999999999997;container=0;" vertex="1" parent="y5vkwGOPZt_xuMyuW4bd-97">
          <mxGeometry x="23" y="11.5" width="16" height="3" as="geometry" />
        </mxCell>
        <mxCell id="y5vkwGOPZt_xuMyuW4bd-109" value="" style="shape=trapezoid;perimeter=trapezoidPerimeter;whiteSpace=wrap;html=1;fixedSize=1;rounded=0;strokeWidth=1;align=center;verticalAlign=middle;fontFamily=Helvetica;fontSize=12;fontColor=default;resizable=1;fillColor=#111111;strokeColor=none;size=3.799999999999997;flipV=1;container=0;" vertex="1" parent="y5vkwGOPZt_xuMyuW4bd-97">
          <mxGeometry x="23" y="0.5" width="16" height="3" as="geometry" />
        </mxCell>
        <mxCell id="y5vkwGOPZt_xuMyuW4bd-110" value="" style="rounded=1;whiteSpace=wrap;html=1;strokeColor=none;fillColor=#008a00;fontColor=#ffffff;container=0;" vertex="1" parent="y5vkwGOPZt_xuMyuW4bd-97">
          <mxGeometry x="76.5" y="10" width="2" height="3" as="geometry" />
        </mxCell>
        <mxCell id="y5vkwGOPZt_xuMyuW4bd-111" value="" style="rounded=1;whiteSpace=wrap;html=1;strokeColor=none;fillColor=#0050ef;fontColor=#ffffff;container=0;" vertex="1" parent="y5vkwGOPZt_xuMyuW4bd-97">
          <mxGeometry x="76.5" y="2" width="2" height="3" as="geometry" />
        </mxCell>
        <mxCell id="y5vkwGOPZt_xuMyuW4bd-112" value="" style="shape=loopLimit;whiteSpace=wrap;html=1;rounded=0;strokeWidth=1;align=center;verticalAlign=middle;fontFamily=Helvetica;fontSize=12;fontColor=default;resizable=1;fillColor=#111111;strokeColor=none;rotation=90;size=4;container=0;" vertex="1" parent="y5vkwGOPZt_xuMyuW4bd-97">
          <mxGeometry x="-2.5" y="2.5" width="15" height="10" as="geometry" />
        </mxCell>
        <mxCell id="y5vkwGOPZt_xuMyuW4bd-113" value="" style="shape=hexagon;perimeter=hexagonPerimeter2;whiteSpace=wrap;html=1;fixedSize=1;rounded=0;strokeWidth=1;align=center;verticalAlign=middle;fontFamily=Helvetica;fontSize=12;fontColor=default;resizable=1;fillColor=#111111;strokeColor=none;size=3.8021390374331503;container=0;" vertex="1" parent="y5vkwGOPZt_xuMyuW4bd-97">
          <mxGeometry x="49" y="4.5" width="16" height="6" as="geometry" />
        </mxCell>
        <mxCell id="y5vkwGOPZt_xuMyuW4bd-114" value="" style="shape=trapezoid;perimeter=trapezoidPerimeter;whiteSpace=wrap;html=1;fixedSize=1;rounded=0;strokeWidth=1;align=center;verticalAlign=middle;fontFamily=Helvetica;fontSize=12;fontColor=default;resizable=1;fillColor=#111111;strokeColor=none;size=3.799999999999997;container=0;" vertex="1" parent="y5vkwGOPZt_xuMyuW4bd-97">
          <mxGeometry x="49" y="11.5" width="16" height="3" as="geometry" />
        </mxCell>
        <mxCell id="y5vkwGOPZt_xuMyuW4bd-115" value="" style="shape=trapezoid;perimeter=trapezoidPerimeter;whiteSpace=wrap;html=1;fixedSize=1;rounded=0;strokeWidth=1;align=center;verticalAlign=middle;fontFamily=Helvetica;fontSize=12;fontColor=default;resizable=1;fillColor=#111111;strokeColor=none;size=3.799999999999997;flipV=1;container=0;" vertex="1" parent="y5vkwGOPZt_xuMyuW4bd-97">
          <mxGeometry x="49" y="0.5" width="16" height="3" as="geometry" />
        </mxCell>
        <mxCell id="y5vkwGOPZt_xuMyuW4bd-116" value="" style="whiteSpace=wrap;html=1;rounded=0;strokeWidth=1;align=center;verticalAlign=middle;fontFamily=Helvetica;fontSize=12;fontColor=default;resizable=1;fillColor=#222222;strokeColor=none;container=0;" vertex="1" parent="y5vkwGOPZt_xuMyuW4bd-97">
          <mxGeometry x="11" width="60.5" height="1" as="geometry" />
        </mxCell>
        <mxCell id="y5vkwGOPZt_xuMyuW4bd-117" value="" style="whiteSpace=wrap;html=1;rounded=0;strokeWidth=1;align=center;verticalAlign=middle;fontFamily=Helvetica;fontSize=12;fontColor=default;resizable=1;fillColor=#222222;strokeColor=none;container=0;" vertex="1" parent="y5vkwGOPZt_xuMyuW4bd-97">
          <mxGeometry x="14" y="14" width="58.5" height="1" as="geometry" />
        </mxCell>
        <mxCell id="y5vkwGOPZt_xuMyuW4bd-118" value="" style="triangle;whiteSpace=wrap;html=1;rounded=0;strokeWidth=0.01;align=center;verticalAlign=middle;fontFamily=Helvetica;fontSize=12;fontColor=default;resizable=1;fillColor=#111111;strokeColor=none;direction=west;container=0;rotation=0;" vertex="1" parent="y5vkwGOPZt_xuMyuW4bd-97">
          <mxGeometry x="62.2" y="1" width="3.8" height="6" as="geometry" />
        </mxCell>
        <mxCell id="y5vkwGOPZt_xuMyuW4bd-119" value="" style="triangle;whiteSpace=wrap;html=1;rounded=0;strokeWidth=0.01;align=center;verticalAlign=middle;fontFamily=Helvetica;fontSize=12;fontColor=default;resizable=1;fillColor=#111111;strokeColor=none;direction=west;container=0;rotation=0;" vertex="1" parent="y5vkwGOPZt_xuMyuW4bd-97">
          <mxGeometry x="62.2" y="8" width="3.8" height="6" as="geometry" />
        </mxCell>
        <mxCell id="y5vkwGOPZt_xuMyuW4bd-120" value="" style="group" vertex="1" connectable="0" parent="y5vkwGOPZt_xuMyuW4bd-235">
          <mxGeometry x="184.5" y="26.950000000000003" width="80" height="15" as="geometry" />
        </mxCell>
        <mxCell id="y5vkwGOPZt_xuMyuW4bd-121" value="" style="rounded=0;whiteSpace=wrap;html=1;strokeColor=none;fillColor=#222222;strokeWidth=1;movable=1;resizable=1;rotatable=1;deletable=1;editable=1;locked=0;connectable=1;container=0;" vertex="1" parent="y5vkwGOPZt_xuMyuW4bd-120">
          <mxGeometry width="80" height="15" as="geometry" />
        </mxCell>
        <mxCell id="y5vkwGOPZt_xuMyuW4bd-122" value="" style="whiteSpace=wrap;html=1;rounded=0;strokeWidth=1;align=center;verticalAlign=middle;fontFamily=Helvetica;fontSize=12;fontColor=default;resizable=1;fillColor=#333333;strokeColor=none;container=0;" vertex="1" parent="y5vkwGOPZt_xuMyuW4bd-120">
          <mxGeometry x="1" y="4" width="66" height="7" as="geometry" />
        </mxCell>
        <mxCell id="y5vkwGOPZt_xuMyuW4bd-123" value="" style="shape=hexagon;perimeter=hexagonPerimeter2;whiteSpace=wrap;html=1;fixedSize=1;rounded=0;strokeWidth=1;align=center;verticalAlign=middle;fontFamily=Helvetica;fontSize=12;fontColor=default;resizable=1;fillColor=#111111;strokeColor=none;size=3.8021390374331503;container=0;" vertex="1" parent="y5vkwGOPZt_xuMyuW4bd-120">
          <mxGeometry x="10" y="1" width="16" height="6" as="geometry" />
        </mxCell>
        <mxCell id="y5vkwGOPZt_xuMyuW4bd-124" value="" style="whiteSpace=wrap;html=1;rounded=0;strokeWidth=1;align=center;verticalAlign=middle;fontFamily=Helvetica;fontSize=12;fontColor=default;resizable=1;fillColor=#111111;strokeColor=none;container=0;" vertex="1" parent="y5vkwGOPZt_xuMyuW4bd-120">
          <mxGeometry x="67" y="1" width="5" height="13" as="geometry" />
        </mxCell>
        <mxCell id="y5vkwGOPZt_xuMyuW4bd-125" value="" style="whiteSpace=wrap;html=1;rounded=0;strokeWidth=1;align=center;verticalAlign=middle;fontFamily=Helvetica;fontSize=12;fontColor=default;resizable=1;fillColor=#333333;strokeColor=none;container=0;" vertex="1" parent="y5vkwGOPZt_xuMyuW4bd-120">
          <mxGeometry x="72" y="1" width="4" height="13" as="geometry" />
        </mxCell>
        <mxCell id="y5vkwGOPZt_xuMyuW4bd-126" value="" style="triangle;whiteSpace=wrap;html=1;strokeColor=#111111;rounded=0;strokeWidth=0.1;align=center;verticalAlign=middle;fontFamily=Helvetica;fontSize=12;fontColor=default;resizable=1;fillColor=#333333;rotation=-180;container=0;" vertex="1" parent="y5vkwGOPZt_xuMyuW4bd-120">
          <mxGeometry x="72.5" y="6" width="3" height="3" as="geometry" />
        </mxCell>
        <mxCell id="y5vkwGOPZt_xuMyuW4bd-127" value="" style="shape=hexagon;perimeter=hexagonPerimeter2;whiteSpace=wrap;html=1;fixedSize=1;rounded=0;strokeWidth=1;align=center;verticalAlign=middle;fontFamily=Helvetica;fontSize=12;fontColor=default;resizable=1;fillColor=#111111;strokeColor=none;size=3.8021390374331503;container=0;" vertex="1" parent="y5vkwGOPZt_xuMyuW4bd-120">
          <mxGeometry x="10" y="8" width="16" height="6" as="geometry" />
        </mxCell>
        <mxCell id="y5vkwGOPZt_xuMyuW4bd-128" value="" style="shape=hexagon;perimeter=hexagonPerimeter2;whiteSpace=wrap;html=1;fixedSize=1;rounded=0;strokeWidth=1;align=center;verticalAlign=middle;fontFamily=Helvetica;fontSize=12;fontColor=default;resizable=1;fillColor=#111111;strokeColor=none;size=3.8021390374331503;container=0;" vertex="1" parent="y5vkwGOPZt_xuMyuW4bd-120">
          <mxGeometry x="23" y="4.5" width="16" height="6" as="geometry" />
        </mxCell>
        <mxCell id="y5vkwGOPZt_xuMyuW4bd-129" value="" style="shape=hexagon;perimeter=hexagonPerimeter2;whiteSpace=wrap;html=1;fixedSize=1;rounded=0;strokeWidth=1;align=center;verticalAlign=middle;fontFamily=Helvetica;fontSize=12;fontColor=default;resizable=1;fillColor=#111111;strokeColor=none;size=3.8021390374331503;container=0;" vertex="1" parent="y5vkwGOPZt_xuMyuW4bd-120">
          <mxGeometry x="36" y="8" width="16" height="6" as="geometry" />
        </mxCell>
        <mxCell id="y5vkwGOPZt_xuMyuW4bd-130" value="" style="shape=hexagon;perimeter=hexagonPerimeter2;whiteSpace=wrap;html=1;fixedSize=1;rounded=0;strokeWidth=1;align=center;verticalAlign=middle;fontFamily=Helvetica;fontSize=12;fontColor=default;resizable=1;fillColor=#111111;strokeColor=none;size=3.8021390374331503;container=0;" vertex="1" parent="y5vkwGOPZt_xuMyuW4bd-120">
          <mxGeometry x="36" y="1" width="16" height="6" as="geometry" />
        </mxCell>
        <mxCell id="y5vkwGOPZt_xuMyuW4bd-131" value="" style="shape=trapezoid;perimeter=trapezoidPerimeter;whiteSpace=wrap;html=1;fixedSize=1;rounded=0;strokeWidth=1;align=center;verticalAlign=middle;fontFamily=Helvetica;fontSize=12;fontColor=default;resizable=1;fillColor=#111111;strokeColor=none;size=3.799999999999997;container=0;" vertex="1" parent="y5vkwGOPZt_xuMyuW4bd-120">
          <mxGeometry x="23" y="11.5" width="16" height="3" as="geometry" />
        </mxCell>
        <mxCell id="y5vkwGOPZt_xuMyuW4bd-132" value="" style="shape=trapezoid;perimeter=trapezoidPerimeter;whiteSpace=wrap;html=1;fixedSize=1;rounded=0;strokeWidth=1;align=center;verticalAlign=middle;fontFamily=Helvetica;fontSize=12;fontColor=default;resizable=1;fillColor=#111111;strokeColor=none;size=3.799999999999997;flipV=1;container=0;" vertex="1" parent="y5vkwGOPZt_xuMyuW4bd-120">
          <mxGeometry x="23" y="0.5" width="16" height="3" as="geometry" />
        </mxCell>
        <mxCell id="y5vkwGOPZt_xuMyuW4bd-133" value="" style="rounded=1;whiteSpace=wrap;html=1;strokeColor=none;fillColor=#008a00;fontColor=#ffffff;container=0;" vertex="1" parent="y5vkwGOPZt_xuMyuW4bd-120">
          <mxGeometry x="76.5" y="10" width="2" height="3" as="geometry" />
        </mxCell>
        <mxCell id="y5vkwGOPZt_xuMyuW4bd-134" value="" style="rounded=1;whiteSpace=wrap;html=1;strokeColor=none;fillColor=#0050ef;fontColor=#ffffff;container=0;" vertex="1" parent="y5vkwGOPZt_xuMyuW4bd-120">
          <mxGeometry x="76.5" y="2" width="2" height="3" as="geometry" />
        </mxCell>
        <mxCell id="y5vkwGOPZt_xuMyuW4bd-135" value="" style="shape=loopLimit;whiteSpace=wrap;html=1;rounded=0;strokeWidth=1;align=center;verticalAlign=middle;fontFamily=Helvetica;fontSize=12;fontColor=default;resizable=1;fillColor=#111111;strokeColor=none;rotation=90;size=4;container=0;" vertex="1" parent="y5vkwGOPZt_xuMyuW4bd-120">
          <mxGeometry x="-2.5" y="2.5" width="15" height="10" as="geometry" />
        </mxCell>
        <mxCell id="y5vkwGOPZt_xuMyuW4bd-136" value="" style="shape=hexagon;perimeter=hexagonPerimeter2;whiteSpace=wrap;html=1;fixedSize=1;rounded=0;strokeWidth=1;align=center;verticalAlign=middle;fontFamily=Helvetica;fontSize=12;fontColor=default;resizable=1;fillColor=#111111;strokeColor=none;size=3.8021390374331503;container=0;" vertex="1" parent="y5vkwGOPZt_xuMyuW4bd-120">
          <mxGeometry x="49" y="4.5" width="16" height="6" as="geometry" />
        </mxCell>
        <mxCell id="y5vkwGOPZt_xuMyuW4bd-137" value="" style="shape=trapezoid;perimeter=trapezoidPerimeter;whiteSpace=wrap;html=1;fixedSize=1;rounded=0;strokeWidth=1;align=center;verticalAlign=middle;fontFamily=Helvetica;fontSize=12;fontColor=default;resizable=1;fillColor=#111111;strokeColor=none;size=3.799999999999997;container=0;" vertex="1" parent="y5vkwGOPZt_xuMyuW4bd-120">
          <mxGeometry x="49" y="11.5" width="16" height="3" as="geometry" />
        </mxCell>
        <mxCell id="y5vkwGOPZt_xuMyuW4bd-138" value="" style="shape=trapezoid;perimeter=trapezoidPerimeter;whiteSpace=wrap;html=1;fixedSize=1;rounded=0;strokeWidth=1;align=center;verticalAlign=middle;fontFamily=Helvetica;fontSize=12;fontColor=default;resizable=1;fillColor=#111111;strokeColor=none;size=3.799999999999997;flipV=1;container=0;" vertex="1" parent="y5vkwGOPZt_xuMyuW4bd-120">
          <mxGeometry x="49" y="0.5" width="16" height="3" as="geometry" />
        </mxCell>
        <mxCell id="y5vkwGOPZt_xuMyuW4bd-139" value="" style="whiteSpace=wrap;html=1;rounded=0;strokeWidth=1;align=center;verticalAlign=middle;fontFamily=Helvetica;fontSize=12;fontColor=default;resizable=1;fillColor=#222222;strokeColor=none;container=0;" vertex="1" parent="y5vkwGOPZt_xuMyuW4bd-120">
          <mxGeometry x="11" width="60.5" height="1" as="geometry" />
        </mxCell>
        <mxCell id="y5vkwGOPZt_xuMyuW4bd-140" value="" style="whiteSpace=wrap;html=1;rounded=0;strokeWidth=1;align=center;verticalAlign=middle;fontFamily=Helvetica;fontSize=12;fontColor=default;resizable=1;fillColor=#222222;strokeColor=none;container=0;" vertex="1" parent="y5vkwGOPZt_xuMyuW4bd-120">
          <mxGeometry x="14" y="14" width="58.5" height="1" as="geometry" />
        </mxCell>
        <mxCell id="y5vkwGOPZt_xuMyuW4bd-141" value="" style="triangle;whiteSpace=wrap;html=1;rounded=0;strokeWidth=0.01;align=center;verticalAlign=middle;fontFamily=Helvetica;fontSize=12;fontColor=default;resizable=1;fillColor=#111111;strokeColor=none;direction=west;container=0;rotation=0;" vertex="1" parent="y5vkwGOPZt_xuMyuW4bd-120">
          <mxGeometry x="62.2" y="1" width="3.8" height="6" as="geometry" />
        </mxCell>
        <mxCell id="y5vkwGOPZt_xuMyuW4bd-142" value="" style="triangle;whiteSpace=wrap;html=1;rounded=0;strokeWidth=0.01;align=center;verticalAlign=middle;fontFamily=Helvetica;fontSize=12;fontColor=default;resizable=1;fillColor=#111111;strokeColor=none;direction=west;container=0;rotation=0;" vertex="1" parent="y5vkwGOPZt_xuMyuW4bd-120">
          <mxGeometry x="62.2" y="8" width="3.8" height="6" as="geometry" />
        </mxCell>
        <mxCell id="y5vkwGOPZt_xuMyuW4bd-143" value="" style="group" vertex="1" connectable="0" parent="y5vkwGOPZt_xuMyuW4bd-235">
          <mxGeometry x="266.5" y="9.950000000000003" width="80" height="15" as="geometry" />
        </mxCell>
        <mxCell id="y5vkwGOPZt_xuMyuW4bd-144" value="" style="rounded=0;whiteSpace=wrap;html=1;strokeColor=none;fillColor=#222222;strokeWidth=1;movable=1;resizable=1;rotatable=1;deletable=1;editable=1;locked=0;connectable=1;container=0;" vertex="1" parent="y5vkwGOPZt_xuMyuW4bd-143">
          <mxGeometry width="80" height="15" as="geometry" />
        </mxCell>
        <mxCell id="y5vkwGOPZt_xuMyuW4bd-145" value="" style="whiteSpace=wrap;html=1;rounded=0;strokeWidth=1;align=center;verticalAlign=middle;fontFamily=Helvetica;fontSize=12;fontColor=default;resizable=1;fillColor=#333333;strokeColor=none;container=0;" vertex="1" parent="y5vkwGOPZt_xuMyuW4bd-143">
          <mxGeometry x="1" y="4" width="66" height="7" as="geometry" />
        </mxCell>
        <mxCell id="y5vkwGOPZt_xuMyuW4bd-146" value="" style="shape=hexagon;perimeter=hexagonPerimeter2;whiteSpace=wrap;html=1;fixedSize=1;rounded=0;strokeWidth=1;align=center;verticalAlign=middle;fontFamily=Helvetica;fontSize=12;fontColor=default;resizable=1;fillColor=#111111;strokeColor=none;size=3.8021390374331503;container=0;" vertex="1" parent="y5vkwGOPZt_xuMyuW4bd-143">
          <mxGeometry x="10" y="1" width="16" height="6" as="geometry" />
        </mxCell>
        <mxCell id="y5vkwGOPZt_xuMyuW4bd-147" value="" style="whiteSpace=wrap;html=1;rounded=0;strokeWidth=1;align=center;verticalAlign=middle;fontFamily=Helvetica;fontSize=12;fontColor=default;resizable=1;fillColor=#111111;strokeColor=none;container=0;" vertex="1" parent="y5vkwGOPZt_xuMyuW4bd-143">
          <mxGeometry x="67" y="1" width="5" height="13" as="geometry" />
        </mxCell>
        <mxCell id="y5vkwGOPZt_xuMyuW4bd-148" value="" style="whiteSpace=wrap;html=1;rounded=0;strokeWidth=1;align=center;verticalAlign=middle;fontFamily=Helvetica;fontSize=12;fontColor=default;resizable=1;fillColor=#333333;strokeColor=none;container=0;" vertex="1" parent="y5vkwGOPZt_xuMyuW4bd-143">
          <mxGeometry x="72" y="1" width="4" height="13" as="geometry" />
        </mxCell>
        <mxCell id="y5vkwGOPZt_xuMyuW4bd-149" value="" style="triangle;whiteSpace=wrap;html=1;strokeColor=#111111;rounded=0;strokeWidth=0.1;align=center;verticalAlign=middle;fontFamily=Helvetica;fontSize=12;fontColor=default;resizable=1;fillColor=#333333;rotation=-180;container=0;" vertex="1" parent="y5vkwGOPZt_xuMyuW4bd-143">
          <mxGeometry x="72.5" y="6" width="3" height="3" as="geometry" />
        </mxCell>
        <mxCell id="y5vkwGOPZt_xuMyuW4bd-150" value="" style="shape=hexagon;perimeter=hexagonPerimeter2;whiteSpace=wrap;html=1;fixedSize=1;rounded=0;strokeWidth=1;align=center;verticalAlign=middle;fontFamily=Helvetica;fontSize=12;fontColor=default;resizable=1;fillColor=#111111;strokeColor=none;size=3.8021390374331503;container=0;" vertex="1" parent="y5vkwGOPZt_xuMyuW4bd-143">
          <mxGeometry x="10" y="8" width="16" height="6" as="geometry" />
        </mxCell>
        <mxCell id="y5vkwGOPZt_xuMyuW4bd-151" value="" style="shape=hexagon;perimeter=hexagonPerimeter2;whiteSpace=wrap;html=1;fixedSize=1;rounded=0;strokeWidth=1;align=center;verticalAlign=middle;fontFamily=Helvetica;fontSize=12;fontColor=default;resizable=1;fillColor=#111111;strokeColor=none;size=3.8021390374331503;container=0;" vertex="1" parent="y5vkwGOPZt_xuMyuW4bd-143">
          <mxGeometry x="23" y="4.5" width="16" height="6" as="geometry" />
        </mxCell>
        <mxCell id="y5vkwGOPZt_xuMyuW4bd-152" value="" style="shape=hexagon;perimeter=hexagonPerimeter2;whiteSpace=wrap;html=1;fixedSize=1;rounded=0;strokeWidth=1;align=center;verticalAlign=middle;fontFamily=Helvetica;fontSize=12;fontColor=default;resizable=1;fillColor=#111111;strokeColor=none;size=3.8021390374331503;container=0;" vertex="1" parent="y5vkwGOPZt_xuMyuW4bd-143">
          <mxGeometry x="36" y="8" width="16" height="6" as="geometry" />
        </mxCell>
        <mxCell id="y5vkwGOPZt_xuMyuW4bd-153" value="" style="shape=hexagon;perimeter=hexagonPerimeter2;whiteSpace=wrap;html=1;fixedSize=1;rounded=0;strokeWidth=1;align=center;verticalAlign=middle;fontFamily=Helvetica;fontSize=12;fontColor=default;resizable=1;fillColor=#111111;strokeColor=none;size=3.8021390374331503;container=0;" vertex="1" parent="y5vkwGOPZt_xuMyuW4bd-143">
          <mxGeometry x="36" y="1" width="16" height="6" as="geometry" />
        </mxCell>
        <mxCell id="y5vkwGOPZt_xuMyuW4bd-154" value="" style="shape=trapezoid;perimeter=trapezoidPerimeter;whiteSpace=wrap;html=1;fixedSize=1;rounded=0;strokeWidth=1;align=center;verticalAlign=middle;fontFamily=Helvetica;fontSize=12;fontColor=default;resizable=1;fillColor=#111111;strokeColor=none;size=3.799999999999997;container=0;" vertex="1" parent="y5vkwGOPZt_xuMyuW4bd-143">
          <mxGeometry x="23" y="11.5" width="16" height="3" as="geometry" />
        </mxCell>
        <mxCell id="y5vkwGOPZt_xuMyuW4bd-155" value="" style="shape=trapezoid;perimeter=trapezoidPerimeter;whiteSpace=wrap;html=1;fixedSize=1;rounded=0;strokeWidth=1;align=center;verticalAlign=middle;fontFamily=Helvetica;fontSize=12;fontColor=default;resizable=1;fillColor=#111111;strokeColor=none;size=3.799999999999997;flipV=1;container=0;" vertex="1" parent="y5vkwGOPZt_xuMyuW4bd-143">
          <mxGeometry x="23" y="0.5" width="16" height="3" as="geometry" />
        </mxCell>
        <mxCell id="y5vkwGOPZt_xuMyuW4bd-156" value="" style="rounded=1;whiteSpace=wrap;html=1;strokeColor=none;fillColor=#008a00;fontColor=#ffffff;container=0;" vertex="1" parent="y5vkwGOPZt_xuMyuW4bd-143">
          <mxGeometry x="76.5" y="10" width="2" height="3" as="geometry" />
        </mxCell>
        <mxCell id="y5vkwGOPZt_xuMyuW4bd-157" value="" style="rounded=1;whiteSpace=wrap;html=1;strokeColor=none;fillColor=#0050ef;fontColor=#ffffff;container=0;" vertex="1" parent="y5vkwGOPZt_xuMyuW4bd-143">
          <mxGeometry x="76.5" y="2" width="2" height="3" as="geometry" />
        </mxCell>
        <mxCell id="y5vkwGOPZt_xuMyuW4bd-158" value="" style="shape=loopLimit;whiteSpace=wrap;html=1;rounded=0;strokeWidth=1;align=center;verticalAlign=middle;fontFamily=Helvetica;fontSize=12;fontColor=default;resizable=1;fillColor=#111111;strokeColor=none;rotation=90;size=4;container=0;" vertex="1" parent="y5vkwGOPZt_xuMyuW4bd-143">
          <mxGeometry x="-2.5" y="2.5" width="15" height="10" as="geometry" />
        </mxCell>
        <mxCell id="y5vkwGOPZt_xuMyuW4bd-159" value="" style="shape=hexagon;perimeter=hexagonPerimeter2;whiteSpace=wrap;html=1;fixedSize=1;rounded=0;strokeWidth=1;align=center;verticalAlign=middle;fontFamily=Helvetica;fontSize=12;fontColor=default;resizable=1;fillColor=#111111;strokeColor=none;size=3.8021390374331503;container=0;" vertex="1" parent="y5vkwGOPZt_xuMyuW4bd-143">
          <mxGeometry x="49" y="4.5" width="16" height="6" as="geometry" />
        </mxCell>
        <mxCell id="y5vkwGOPZt_xuMyuW4bd-160" value="" style="shape=trapezoid;perimeter=trapezoidPerimeter;whiteSpace=wrap;html=1;fixedSize=1;rounded=0;strokeWidth=1;align=center;verticalAlign=middle;fontFamily=Helvetica;fontSize=12;fontColor=default;resizable=1;fillColor=#111111;strokeColor=none;size=3.799999999999997;container=0;" vertex="1" parent="y5vkwGOPZt_xuMyuW4bd-143">
          <mxGeometry x="49" y="11.5" width="16" height="3" as="geometry" />
        </mxCell>
        <mxCell id="y5vkwGOPZt_xuMyuW4bd-161" value="" style="shape=trapezoid;perimeter=trapezoidPerimeter;whiteSpace=wrap;html=1;fixedSize=1;rounded=0;strokeWidth=1;align=center;verticalAlign=middle;fontFamily=Helvetica;fontSize=12;fontColor=default;resizable=1;fillColor=#111111;strokeColor=none;size=3.799999999999997;flipV=1;container=0;" vertex="1" parent="y5vkwGOPZt_xuMyuW4bd-143">
          <mxGeometry x="49" y="0.5" width="16" height="3" as="geometry" />
        </mxCell>
        <mxCell id="y5vkwGOPZt_xuMyuW4bd-162" value="" style="whiteSpace=wrap;html=1;rounded=0;strokeWidth=1;align=center;verticalAlign=middle;fontFamily=Helvetica;fontSize=12;fontColor=default;resizable=1;fillColor=#222222;strokeColor=none;container=0;" vertex="1" parent="y5vkwGOPZt_xuMyuW4bd-143">
          <mxGeometry x="11" width="60.5" height="1" as="geometry" />
        </mxCell>
        <mxCell id="y5vkwGOPZt_xuMyuW4bd-163" value="" style="whiteSpace=wrap;html=1;rounded=0;strokeWidth=1;align=center;verticalAlign=middle;fontFamily=Helvetica;fontSize=12;fontColor=default;resizable=1;fillColor=#222222;strokeColor=none;container=0;" vertex="1" parent="y5vkwGOPZt_xuMyuW4bd-143">
          <mxGeometry x="14" y="14" width="58.5" height="1" as="geometry" />
        </mxCell>
        <mxCell id="y5vkwGOPZt_xuMyuW4bd-164" value="" style="triangle;whiteSpace=wrap;html=1;rounded=0;strokeWidth=0.01;align=center;verticalAlign=middle;fontFamily=Helvetica;fontSize=12;fontColor=default;resizable=1;fillColor=#111111;strokeColor=none;direction=west;container=0;rotation=0;" vertex="1" parent="y5vkwGOPZt_xuMyuW4bd-143">
          <mxGeometry x="62.2" y="1" width="3.8" height="6" as="geometry" />
        </mxCell>
        <mxCell id="y5vkwGOPZt_xuMyuW4bd-165" value="" style="triangle;whiteSpace=wrap;html=1;rounded=0;strokeWidth=0.01;align=center;verticalAlign=middle;fontFamily=Helvetica;fontSize=12;fontColor=default;resizable=1;fillColor=#111111;strokeColor=none;direction=west;container=0;rotation=0;" vertex="1" parent="y5vkwGOPZt_xuMyuW4bd-143">
          <mxGeometry x="62.2" y="8" width="3.8" height="6" as="geometry" />
        </mxCell>
        <mxCell id="y5vkwGOPZt_xuMyuW4bd-166" value="" style="group" vertex="1" connectable="0" parent="y5vkwGOPZt_xuMyuW4bd-235">
          <mxGeometry x="266.5" y="26.950000000000003" width="80" height="15" as="geometry" />
        </mxCell>
        <mxCell id="y5vkwGOPZt_xuMyuW4bd-167" value="" style="rounded=0;whiteSpace=wrap;html=1;strokeColor=none;fillColor=#222222;strokeWidth=1;movable=1;resizable=1;rotatable=1;deletable=1;editable=1;locked=0;connectable=1;container=0;" vertex="1" parent="y5vkwGOPZt_xuMyuW4bd-166">
          <mxGeometry width="80" height="15" as="geometry" />
        </mxCell>
        <mxCell id="y5vkwGOPZt_xuMyuW4bd-168" value="" style="whiteSpace=wrap;html=1;rounded=0;strokeWidth=1;align=center;verticalAlign=middle;fontFamily=Helvetica;fontSize=12;fontColor=default;resizable=1;fillColor=#333333;strokeColor=none;container=0;" vertex="1" parent="y5vkwGOPZt_xuMyuW4bd-166">
          <mxGeometry x="1" y="4" width="66" height="7" as="geometry" />
        </mxCell>
        <mxCell id="y5vkwGOPZt_xuMyuW4bd-169" value="" style="shape=hexagon;perimeter=hexagonPerimeter2;whiteSpace=wrap;html=1;fixedSize=1;rounded=0;strokeWidth=1;align=center;verticalAlign=middle;fontFamily=Helvetica;fontSize=12;fontColor=default;resizable=1;fillColor=#111111;strokeColor=none;size=3.8021390374331503;container=0;" vertex="1" parent="y5vkwGOPZt_xuMyuW4bd-166">
          <mxGeometry x="10" y="1" width="16" height="6" as="geometry" />
        </mxCell>
        <mxCell id="y5vkwGOPZt_xuMyuW4bd-170" value="" style="whiteSpace=wrap;html=1;rounded=0;strokeWidth=1;align=center;verticalAlign=middle;fontFamily=Helvetica;fontSize=12;fontColor=default;resizable=1;fillColor=#111111;strokeColor=none;container=0;" vertex="1" parent="y5vkwGOPZt_xuMyuW4bd-166">
          <mxGeometry x="67" y="1" width="5" height="13" as="geometry" />
        </mxCell>
        <mxCell id="y5vkwGOPZt_xuMyuW4bd-171" value="" style="whiteSpace=wrap;html=1;rounded=0;strokeWidth=1;align=center;verticalAlign=middle;fontFamily=Helvetica;fontSize=12;fontColor=default;resizable=1;fillColor=#333333;strokeColor=none;container=0;" vertex="1" parent="y5vkwGOPZt_xuMyuW4bd-166">
          <mxGeometry x="72" y="1" width="4" height="13" as="geometry" />
        </mxCell>
        <mxCell id="y5vkwGOPZt_xuMyuW4bd-172" value="" style="triangle;whiteSpace=wrap;html=1;strokeColor=#111111;rounded=0;strokeWidth=0.1;align=center;verticalAlign=middle;fontFamily=Helvetica;fontSize=12;fontColor=default;resizable=1;fillColor=#333333;rotation=-180;container=0;" vertex="1" parent="y5vkwGOPZt_xuMyuW4bd-166">
          <mxGeometry x="72.5" y="6" width="3" height="3" as="geometry" />
        </mxCell>
        <mxCell id="y5vkwGOPZt_xuMyuW4bd-173" value="" style="shape=hexagon;perimeter=hexagonPerimeter2;whiteSpace=wrap;html=1;fixedSize=1;rounded=0;strokeWidth=1;align=center;verticalAlign=middle;fontFamily=Helvetica;fontSize=12;fontColor=default;resizable=1;fillColor=#111111;strokeColor=none;size=3.8021390374331503;container=0;" vertex="1" parent="y5vkwGOPZt_xuMyuW4bd-166">
          <mxGeometry x="10" y="8" width="16" height="6" as="geometry" />
        </mxCell>
        <mxCell id="y5vkwGOPZt_xuMyuW4bd-174" value="" style="shape=hexagon;perimeter=hexagonPerimeter2;whiteSpace=wrap;html=1;fixedSize=1;rounded=0;strokeWidth=1;align=center;verticalAlign=middle;fontFamily=Helvetica;fontSize=12;fontColor=default;resizable=1;fillColor=#111111;strokeColor=none;size=3.8021390374331503;container=0;" vertex="1" parent="y5vkwGOPZt_xuMyuW4bd-166">
          <mxGeometry x="23" y="4.5" width="16" height="6" as="geometry" />
        </mxCell>
        <mxCell id="y5vkwGOPZt_xuMyuW4bd-175" value="" style="shape=hexagon;perimeter=hexagonPerimeter2;whiteSpace=wrap;html=1;fixedSize=1;rounded=0;strokeWidth=1;align=center;verticalAlign=middle;fontFamily=Helvetica;fontSize=12;fontColor=default;resizable=1;fillColor=#111111;strokeColor=none;size=3.8021390374331503;container=0;" vertex="1" parent="y5vkwGOPZt_xuMyuW4bd-166">
          <mxGeometry x="36" y="8" width="16" height="6" as="geometry" />
        </mxCell>
        <mxCell id="y5vkwGOPZt_xuMyuW4bd-176" value="" style="shape=hexagon;perimeter=hexagonPerimeter2;whiteSpace=wrap;html=1;fixedSize=1;rounded=0;strokeWidth=1;align=center;verticalAlign=middle;fontFamily=Helvetica;fontSize=12;fontColor=default;resizable=1;fillColor=#111111;strokeColor=none;size=3.8021390374331503;container=0;" vertex="1" parent="y5vkwGOPZt_xuMyuW4bd-166">
          <mxGeometry x="36" y="1" width="16" height="6" as="geometry" />
        </mxCell>
        <mxCell id="y5vkwGOPZt_xuMyuW4bd-177" value="" style="shape=trapezoid;perimeter=trapezoidPerimeter;whiteSpace=wrap;html=1;fixedSize=1;rounded=0;strokeWidth=1;align=center;verticalAlign=middle;fontFamily=Helvetica;fontSize=12;fontColor=default;resizable=1;fillColor=#111111;strokeColor=none;size=3.799999999999997;container=0;" vertex="1" parent="y5vkwGOPZt_xuMyuW4bd-166">
          <mxGeometry x="23" y="11.5" width="16" height="3" as="geometry" />
        </mxCell>
        <mxCell id="y5vkwGOPZt_xuMyuW4bd-178" value="" style="shape=trapezoid;perimeter=trapezoidPerimeter;whiteSpace=wrap;html=1;fixedSize=1;rounded=0;strokeWidth=1;align=center;verticalAlign=middle;fontFamily=Helvetica;fontSize=12;fontColor=default;resizable=1;fillColor=#111111;strokeColor=none;size=3.799999999999997;flipV=1;container=0;" vertex="1" parent="y5vkwGOPZt_xuMyuW4bd-166">
          <mxGeometry x="23" y="0.5" width="16" height="3" as="geometry" />
        </mxCell>
        <mxCell id="y5vkwGOPZt_xuMyuW4bd-179" value="" style="rounded=1;whiteSpace=wrap;html=1;strokeColor=none;fillColor=#008a00;fontColor=#ffffff;container=0;" vertex="1" parent="y5vkwGOPZt_xuMyuW4bd-166">
          <mxGeometry x="76.5" y="10" width="2" height="3" as="geometry" />
        </mxCell>
        <mxCell id="y5vkwGOPZt_xuMyuW4bd-180" value="" style="rounded=1;whiteSpace=wrap;html=1;strokeColor=none;fillColor=#0050ef;fontColor=#ffffff;container=0;" vertex="1" parent="y5vkwGOPZt_xuMyuW4bd-166">
          <mxGeometry x="76.5" y="2" width="2" height="3" as="geometry" />
        </mxCell>
        <mxCell id="y5vkwGOPZt_xuMyuW4bd-181" value="" style="shape=loopLimit;whiteSpace=wrap;html=1;rounded=0;strokeWidth=1;align=center;verticalAlign=middle;fontFamily=Helvetica;fontSize=12;fontColor=default;resizable=1;fillColor=#111111;strokeColor=none;rotation=90;size=4;container=0;" vertex="1" parent="y5vkwGOPZt_xuMyuW4bd-166">
          <mxGeometry x="-2.5" y="2.5" width="15" height="10" as="geometry" />
        </mxCell>
        <mxCell id="y5vkwGOPZt_xuMyuW4bd-182" value="" style="shape=hexagon;perimeter=hexagonPerimeter2;whiteSpace=wrap;html=1;fixedSize=1;rounded=0;strokeWidth=1;align=center;verticalAlign=middle;fontFamily=Helvetica;fontSize=12;fontColor=default;resizable=1;fillColor=#111111;strokeColor=none;size=3.8021390374331503;container=0;" vertex="1" parent="y5vkwGOPZt_xuMyuW4bd-166">
          <mxGeometry x="49" y="4.5" width="16" height="6" as="geometry" />
        </mxCell>
        <mxCell id="y5vkwGOPZt_xuMyuW4bd-183" value="" style="shape=trapezoid;perimeter=trapezoidPerimeter;whiteSpace=wrap;html=1;fixedSize=1;rounded=0;strokeWidth=1;align=center;verticalAlign=middle;fontFamily=Helvetica;fontSize=12;fontColor=default;resizable=1;fillColor=#111111;strokeColor=none;size=3.799999999999997;container=0;" vertex="1" parent="y5vkwGOPZt_xuMyuW4bd-166">
          <mxGeometry x="49" y="11.5" width="16" height="3" as="geometry" />
        </mxCell>
        <mxCell id="y5vkwGOPZt_xuMyuW4bd-184" value="" style="shape=trapezoid;perimeter=trapezoidPerimeter;whiteSpace=wrap;html=1;fixedSize=1;rounded=0;strokeWidth=1;align=center;verticalAlign=middle;fontFamily=Helvetica;fontSize=12;fontColor=default;resizable=1;fillColor=#111111;strokeColor=none;size=3.799999999999997;flipV=1;container=0;" vertex="1" parent="y5vkwGOPZt_xuMyuW4bd-166">
          <mxGeometry x="49" y="0.5" width="16" height="3" as="geometry" />
        </mxCell>
        <mxCell id="y5vkwGOPZt_xuMyuW4bd-185" value="" style="whiteSpace=wrap;html=1;rounded=0;strokeWidth=1;align=center;verticalAlign=middle;fontFamily=Helvetica;fontSize=12;fontColor=default;resizable=1;fillColor=#222222;strokeColor=none;container=0;" vertex="1" parent="y5vkwGOPZt_xuMyuW4bd-166">
          <mxGeometry x="11" width="60.5" height="1" as="geometry" />
        </mxCell>
        <mxCell id="y5vkwGOPZt_xuMyuW4bd-186" value="" style="whiteSpace=wrap;html=1;rounded=0;strokeWidth=1;align=center;verticalAlign=middle;fontFamily=Helvetica;fontSize=12;fontColor=default;resizable=1;fillColor=#222222;strokeColor=none;container=0;" vertex="1" parent="y5vkwGOPZt_xuMyuW4bd-166">
          <mxGeometry x="14" y="14" width="58.5" height="1" as="geometry" />
        </mxCell>
        <mxCell id="y5vkwGOPZt_xuMyuW4bd-187" value="" style="triangle;whiteSpace=wrap;html=1;rounded=0;strokeWidth=0.01;align=center;verticalAlign=middle;fontFamily=Helvetica;fontSize=12;fontColor=default;resizable=1;fillColor=#111111;strokeColor=none;direction=west;container=0;rotation=0;" vertex="1" parent="y5vkwGOPZt_xuMyuW4bd-166">
          <mxGeometry x="62.2" y="1" width="3.8" height="6" as="geometry" />
        </mxCell>
        <mxCell id="y5vkwGOPZt_xuMyuW4bd-188" value="" style="triangle;whiteSpace=wrap;html=1;rounded=0;strokeWidth=0.01;align=center;verticalAlign=middle;fontFamily=Helvetica;fontSize=12;fontColor=default;resizable=1;fillColor=#111111;strokeColor=none;direction=west;container=0;rotation=0;" vertex="1" parent="y5vkwGOPZt_xuMyuW4bd-166">
          <mxGeometry x="62.2" y="8" width="3.8" height="6" as="geometry" />
        </mxCell>
        <mxCell id="y5vkwGOPZt_xuMyuW4bd-189" value="" style="group" vertex="1" connectable="0" parent="y5vkwGOPZt_xuMyuW4bd-235">
          <mxGeometry x="348.5" y="9.950000000000003" width="80" height="15" as="geometry" />
        </mxCell>
        <mxCell id="y5vkwGOPZt_xuMyuW4bd-190" value="" style="rounded=0;whiteSpace=wrap;html=1;strokeColor=none;fillColor=#222222;strokeWidth=1;movable=1;resizable=1;rotatable=1;deletable=1;editable=1;locked=0;connectable=1;container=0;" vertex="1" parent="y5vkwGOPZt_xuMyuW4bd-189">
          <mxGeometry width="80" height="15" as="geometry" />
        </mxCell>
        <mxCell id="y5vkwGOPZt_xuMyuW4bd-191" value="" style="whiteSpace=wrap;html=1;rounded=0;strokeWidth=1;align=center;verticalAlign=middle;fontFamily=Helvetica;fontSize=12;fontColor=default;resizable=1;fillColor=#333333;strokeColor=none;container=0;" vertex="1" parent="y5vkwGOPZt_xuMyuW4bd-189">
          <mxGeometry x="1" y="4" width="66" height="7" as="geometry" />
        </mxCell>
        <mxCell id="y5vkwGOPZt_xuMyuW4bd-192" value="" style="shape=hexagon;perimeter=hexagonPerimeter2;whiteSpace=wrap;html=1;fixedSize=1;rounded=0;strokeWidth=1;align=center;verticalAlign=middle;fontFamily=Helvetica;fontSize=12;fontColor=default;resizable=1;fillColor=#111111;strokeColor=none;size=3.8021390374331503;container=0;" vertex="1" parent="y5vkwGOPZt_xuMyuW4bd-189">
          <mxGeometry x="10" y="1" width="16" height="6" as="geometry" />
        </mxCell>
        <mxCell id="y5vkwGOPZt_xuMyuW4bd-193" value="" style="whiteSpace=wrap;html=1;rounded=0;strokeWidth=1;align=center;verticalAlign=middle;fontFamily=Helvetica;fontSize=12;fontColor=default;resizable=1;fillColor=#111111;strokeColor=none;container=0;" vertex="1" parent="y5vkwGOPZt_xuMyuW4bd-189">
          <mxGeometry x="67" y="1" width="5" height="13" as="geometry" />
        </mxCell>
        <mxCell id="y5vkwGOPZt_xuMyuW4bd-194" value="" style="whiteSpace=wrap;html=1;rounded=0;strokeWidth=1;align=center;verticalAlign=middle;fontFamily=Helvetica;fontSize=12;fontColor=default;resizable=1;fillColor=#333333;strokeColor=none;container=0;" vertex="1" parent="y5vkwGOPZt_xuMyuW4bd-189">
          <mxGeometry x="72" y="1" width="4" height="13" as="geometry" />
        </mxCell>
        <mxCell id="y5vkwGOPZt_xuMyuW4bd-195" value="" style="triangle;whiteSpace=wrap;html=1;strokeColor=#111111;rounded=0;strokeWidth=0.1;align=center;verticalAlign=middle;fontFamily=Helvetica;fontSize=12;fontColor=default;resizable=1;fillColor=#333333;rotation=-180;container=0;" vertex="1" parent="y5vkwGOPZt_xuMyuW4bd-189">
          <mxGeometry x="72.5" y="6" width="3" height="3" as="geometry" />
        </mxCell>
        <mxCell id="y5vkwGOPZt_xuMyuW4bd-196" value="" style="shape=hexagon;perimeter=hexagonPerimeter2;whiteSpace=wrap;html=1;fixedSize=1;rounded=0;strokeWidth=1;align=center;verticalAlign=middle;fontFamily=Helvetica;fontSize=12;fontColor=default;resizable=1;fillColor=#111111;strokeColor=none;size=3.8021390374331503;container=0;" vertex="1" parent="y5vkwGOPZt_xuMyuW4bd-189">
          <mxGeometry x="10" y="8" width="16" height="6" as="geometry" />
        </mxCell>
        <mxCell id="y5vkwGOPZt_xuMyuW4bd-197" value="" style="shape=hexagon;perimeter=hexagonPerimeter2;whiteSpace=wrap;html=1;fixedSize=1;rounded=0;strokeWidth=1;align=center;verticalAlign=middle;fontFamily=Helvetica;fontSize=12;fontColor=default;resizable=1;fillColor=#111111;strokeColor=none;size=3.8021390374331503;container=0;" vertex="1" parent="y5vkwGOPZt_xuMyuW4bd-189">
          <mxGeometry x="23" y="4.5" width="16" height="6" as="geometry" />
        </mxCell>
        <mxCell id="y5vkwGOPZt_xuMyuW4bd-198" value="" style="shape=hexagon;perimeter=hexagonPerimeter2;whiteSpace=wrap;html=1;fixedSize=1;rounded=0;strokeWidth=1;align=center;verticalAlign=middle;fontFamily=Helvetica;fontSize=12;fontColor=default;resizable=1;fillColor=#111111;strokeColor=none;size=3.8021390374331503;container=0;" vertex="1" parent="y5vkwGOPZt_xuMyuW4bd-189">
          <mxGeometry x="36" y="8" width="16" height="6" as="geometry" />
        </mxCell>
        <mxCell id="y5vkwGOPZt_xuMyuW4bd-199" value="" style="shape=hexagon;perimeter=hexagonPerimeter2;whiteSpace=wrap;html=1;fixedSize=1;rounded=0;strokeWidth=1;align=center;verticalAlign=middle;fontFamily=Helvetica;fontSize=12;fontColor=default;resizable=1;fillColor=#111111;strokeColor=none;size=3.8021390374331503;container=0;" vertex="1" parent="y5vkwGOPZt_xuMyuW4bd-189">
          <mxGeometry x="36" y="1" width="16" height="6" as="geometry" />
        </mxCell>
        <mxCell id="y5vkwGOPZt_xuMyuW4bd-200" value="" style="shape=trapezoid;perimeter=trapezoidPerimeter;whiteSpace=wrap;html=1;fixedSize=1;rounded=0;strokeWidth=1;align=center;verticalAlign=middle;fontFamily=Helvetica;fontSize=12;fontColor=default;resizable=1;fillColor=#111111;strokeColor=none;size=3.799999999999997;container=0;" vertex="1" parent="y5vkwGOPZt_xuMyuW4bd-189">
          <mxGeometry x="23" y="11.5" width="16" height="3" as="geometry" />
        </mxCell>
        <mxCell id="y5vkwGOPZt_xuMyuW4bd-201" value="" style="shape=trapezoid;perimeter=trapezoidPerimeter;whiteSpace=wrap;html=1;fixedSize=1;rounded=0;strokeWidth=1;align=center;verticalAlign=middle;fontFamily=Helvetica;fontSize=12;fontColor=default;resizable=1;fillColor=#111111;strokeColor=none;size=3.799999999999997;flipV=1;container=0;" vertex="1" parent="y5vkwGOPZt_xuMyuW4bd-189">
          <mxGeometry x="23" y="0.5" width="16" height="3" as="geometry" />
        </mxCell>
        <mxCell id="y5vkwGOPZt_xuMyuW4bd-202" value="" style="rounded=1;whiteSpace=wrap;html=1;strokeColor=none;fillColor=#008a00;fontColor=#ffffff;container=0;" vertex="1" parent="y5vkwGOPZt_xuMyuW4bd-189">
          <mxGeometry x="76.5" y="10" width="2" height="3" as="geometry" />
        </mxCell>
        <mxCell id="y5vkwGOPZt_xuMyuW4bd-203" value="" style="rounded=1;whiteSpace=wrap;html=1;strokeColor=none;fillColor=#0050ef;fontColor=#ffffff;container=0;" vertex="1" parent="y5vkwGOPZt_xuMyuW4bd-189">
          <mxGeometry x="76.5" y="2" width="2" height="3" as="geometry" />
        </mxCell>
        <mxCell id="y5vkwGOPZt_xuMyuW4bd-204" value="" style="shape=loopLimit;whiteSpace=wrap;html=1;rounded=0;strokeWidth=1;align=center;verticalAlign=middle;fontFamily=Helvetica;fontSize=12;fontColor=default;resizable=1;fillColor=#111111;strokeColor=none;rotation=90;size=4;container=0;" vertex="1" parent="y5vkwGOPZt_xuMyuW4bd-189">
          <mxGeometry x="-2.5" y="2.5" width="15" height="10" as="geometry" />
        </mxCell>
        <mxCell id="y5vkwGOPZt_xuMyuW4bd-205" value="" style="shape=hexagon;perimeter=hexagonPerimeter2;whiteSpace=wrap;html=1;fixedSize=1;rounded=0;strokeWidth=1;align=center;verticalAlign=middle;fontFamily=Helvetica;fontSize=12;fontColor=default;resizable=1;fillColor=#111111;strokeColor=none;size=3.8021390374331503;container=0;" vertex="1" parent="y5vkwGOPZt_xuMyuW4bd-189">
          <mxGeometry x="49" y="4.5" width="16" height="6" as="geometry" />
        </mxCell>
        <mxCell id="y5vkwGOPZt_xuMyuW4bd-206" value="" style="shape=trapezoid;perimeter=trapezoidPerimeter;whiteSpace=wrap;html=1;fixedSize=1;rounded=0;strokeWidth=1;align=center;verticalAlign=middle;fontFamily=Helvetica;fontSize=12;fontColor=default;resizable=1;fillColor=#111111;strokeColor=none;size=3.799999999999997;container=0;" vertex="1" parent="y5vkwGOPZt_xuMyuW4bd-189">
          <mxGeometry x="49" y="11.5" width="16" height="3" as="geometry" />
        </mxCell>
        <mxCell id="y5vkwGOPZt_xuMyuW4bd-207" value="" style="shape=trapezoid;perimeter=trapezoidPerimeter;whiteSpace=wrap;html=1;fixedSize=1;rounded=0;strokeWidth=1;align=center;verticalAlign=middle;fontFamily=Helvetica;fontSize=12;fontColor=default;resizable=1;fillColor=#111111;strokeColor=none;size=3.799999999999997;flipV=1;container=0;" vertex="1" parent="y5vkwGOPZt_xuMyuW4bd-189">
          <mxGeometry x="49" y="0.5" width="16" height="3" as="geometry" />
        </mxCell>
        <mxCell id="y5vkwGOPZt_xuMyuW4bd-208" value="" style="whiteSpace=wrap;html=1;rounded=0;strokeWidth=1;align=center;verticalAlign=middle;fontFamily=Helvetica;fontSize=12;fontColor=default;resizable=1;fillColor=#222222;strokeColor=none;container=0;" vertex="1" parent="y5vkwGOPZt_xuMyuW4bd-189">
          <mxGeometry x="11" width="60.5" height="1" as="geometry" />
        </mxCell>
        <mxCell id="y5vkwGOPZt_xuMyuW4bd-209" value="" style="whiteSpace=wrap;html=1;rounded=0;strokeWidth=1;align=center;verticalAlign=middle;fontFamily=Helvetica;fontSize=12;fontColor=default;resizable=1;fillColor=#222222;strokeColor=none;container=0;" vertex="1" parent="y5vkwGOPZt_xuMyuW4bd-189">
          <mxGeometry x="14" y="14" width="58.5" height="1" as="geometry" />
        </mxCell>
        <mxCell id="y5vkwGOPZt_xuMyuW4bd-210" value="" style="triangle;whiteSpace=wrap;html=1;rounded=0;strokeWidth=0.01;align=center;verticalAlign=middle;fontFamily=Helvetica;fontSize=12;fontColor=default;resizable=1;fillColor=#111111;strokeColor=none;direction=west;container=0;rotation=0;" vertex="1" parent="y5vkwGOPZt_xuMyuW4bd-189">
          <mxGeometry x="62.2" y="1" width="3.8" height="6" as="geometry" />
        </mxCell>
        <mxCell id="y5vkwGOPZt_xuMyuW4bd-211" value="" style="triangle;whiteSpace=wrap;html=1;rounded=0;strokeWidth=0.01;align=center;verticalAlign=middle;fontFamily=Helvetica;fontSize=12;fontColor=default;resizable=1;fillColor=#111111;strokeColor=none;direction=west;container=0;rotation=0;" vertex="1" parent="y5vkwGOPZt_xuMyuW4bd-189">
          <mxGeometry x="62.2" y="8" width="3.8" height="6" as="geometry" />
        </mxCell>
        <mxCell id="y5vkwGOPZt_xuMyuW4bd-212" value="" style="group" vertex="1" connectable="0" parent="y5vkwGOPZt_xuMyuW4bd-235">
          <mxGeometry x="348.5" y="26.950000000000003" width="80" height="15" as="geometry" />
        </mxCell>
        <mxCell id="y5vkwGOPZt_xuMyuW4bd-213" value="" style="rounded=0;whiteSpace=wrap;html=1;strokeColor=none;fillColor=#222222;strokeWidth=1;movable=1;resizable=1;rotatable=1;deletable=1;editable=1;locked=0;connectable=1;container=0;" vertex="1" parent="y5vkwGOPZt_xuMyuW4bd-212">
          <mxGeometry width="80" height="15" as="geometry" />
        </mxCell>
        <mxCell id="y5vkwGOPZt_xuMyuW4bd-214" value="" style="whiteSpace=wrap;html=1;rounded=0;strokeWidth=1;align=center;verticalAlign=middle;fontFamily=Helvetica;fontSize=12;fontColor=default;resizable=1;fillColor=#333333;strokeColor=none;container=0;" vertex="1" parent="y5vkwGOPZt_xuMyuW4bd-212">
          <mxGeometry x="1" y="4" width="66" height="7" as="geometry" />
        </mxCell>
        <mxCell id="y5vkwGOPZt_xuMyuW4bd-215" value="" style="shape=hexagon;perimeter=hexagonPerimeter2;whiteSpace=wrap;html=1;fixedSize=1;rounded=0;strokeWidth=1;align=center;verticalAlign=middle;fontFamily=Helvetica;fontSize=12;fontColor=default;resizable=1;fillColor=#111111;strokeColor=none;size=3.8021390374331503;container=0;" vertex="1" parent="y5vkwGOPZt_xuMyuW4bd-212">
          <mxGeometry x="10" y="1" width="16" height="6" as="geometry" />
        </mxCell>
        <mxCell id="y5vkwGOPZt_xuMyuW4bd-216" value="" style="whiteSpace=wrap;html=1;rounded=0;strokeWidth=1;align=center;verticalAlign=middle;fontFamily=Helvetica;fontSize=12;fontColor=default;resizable=1;fillColor=#111111;strokeColor=none;container=0;" vertex="1" parent="y5vkwGOPZt_xuMyuW4bd-212">
          <mxGeometry x="67" y="1" width="5" height="13" as="geometry" />
        </mxCell>
        <mxCell id="y5vkwGOPZt_xuMyuW4bd-217" value="" style="whiteSpace=wrap;html=1;rounded=0;strokeWidth=1;align=center;verticalAlign=middle;fontFamily=Helvetica;fontSize=12;fontColor=default;resizable=1;fillColor=#333333;strokeColor=none;container=0;" vertex="1" parent="y5vkwGOPZt_xuMyuW4bd-212">
          <mxGeometry x="72" y="1" width="4" height="13" as="geometry" />
        </mxCell>
        <mxCell id="y5vkwGOPZt_xuMyuW4bd-218" value="" style="triangle;whiteSpace=wrap;html=1;strokeColor=#111111;rounded=0;strokeWidth=0.1;align=center;verticalAlign=middle;fontFamily=Helvetica;fontSize=12;fontColor=default;resizable=1;fillColor=#333333;rotation=-180;container=0;" vertex="1" parent="y5vkwGOPZt_xuMyuW4bd-212">
          <mxGeometry x="72.5" y="6" width="3" height="3" as="geometry" />
        </mxCell>
        <mxCell id="y5vkwGOPZt_xuMyuW4bd-219" value="" style="shape=hexagon;perimeter=hexagonPerimeter2;whiteSpace=wrap;html=1;fixedSize=1;rounded=0;strokeWidth=1;align=center;verticalAlign=middle;fontFamily=Helvetica;fontSize=12;fontColor=default;resizable=1;fillColor=#111111;strokeColor=none;size=3.8021390374331503;container=0;" vertex="1" parent="y5vkwGOPZt_xuMyuW4bd-212">
          <mxGeometry x="10" y="8" width="16" height="6" as="geometry" />
        </mxCell>
        <mxCell id="y5vkwGOPZt_xuMyuW4bd-220" value="" style="shape=hexagon;perimeter=hexagonPerimeter2;whiteSpace=wrap;html=1;fixedSize=1;rounded=0;strokeWidth=1;align=center;verticalAlign=middle;fontFamily=Helvetica;fontSize=12;fontColor=default;resizable=1;fillColor=#111111;strokeColor=none;size=3.8021390374331503;container=0;" vertex="1" parent="y5vkwGOPZt_xuMyuW4bd-212">
          <mxGeometry x="23" y="4.5" width="16" height="6" as="geometry" />
        </mxCell>
        <mxCell id="y5vkwGOPZt_xuMyuW4bd-221" value="" style="shape=hexagon;perimeter=hexagonPerimeter2;whiteSpace=wrap;html=1;fixedSize=1;rounded=0;strokeWidth=1;align=center;verticalAlign=middle;fontFamily=Helvetica;fontSize=12;fontColor=default;resizable=1;fillColor=#111111;strokeColor=none;size=3.8021390374331503;container=0;" vertex="1" parent="y5vkwGOPZt_xuMyuW4bd-212">
          <mxGeometry x="36" y="8" width="16" height="6" as="geometry" />
        </mxCell>
        <mxCell id="y5vkwGOPZt_xuMyuW4bd-222" value="" style="shape=hexagon;perimeter=hexagonPerimeter2;whiteSpace=wrap;html=1;fixedSize=1;rounded=0;strokeWidth=1;align=center;verticalAlign=middle;fontFamily=Helvetica;fontSize=12;fontColor=default;resizable=1;fillColor=#111111;strokeColor=none;size=3.8021390374331503;container=0;" vertex="1" parent="y5vkwGOPZt_xuMyuW4bd-212">
          <mxGeometry x="36" y="1" width="16" height="6" as="geometry" />
        </mxCell>
        <mxCell id="y5vkwGOPZt_xuMyuW4bd-223" value="" style="shape=trapezoid;perimeter=trapezoidPerimeter;whiteSpace=wrap;html=1;fixedSize=1;rounded=0;strokeWidth=1;align=center;verticalAlign=middle;fontFamily=Helvetica;fontSize=12;fontColor=default;resizable=1;fillColor=#111111;strokeColor=none;size=3.799999999999997;container=0;" vertex="1" parent="y5vkwGOPZt_xuMyuW4bd-212">
          <mxGeometry x="23" y="11.5" width="16" height="3" as="geometry" />
        </mxCell>
        <mxCell id="y5vkwGOPZt_xuMyuW4bd-224" value="" style="shape=trapezoid;perimeter=trapezoidPerimeter;whiteSpace=wrap;html=1;fixedSize=1;rounded=0;strokeWidth=1;align=center;verticalAlign=middle;fontFamily=Helvetica;fontSize=12;fontColor=default;resizable=1;fillColor=#111111;strokeColor=none;size=3.799999999999997;flipV=1;container=0;" vertex="1" parent="y5vkwGOPZt_xuMyuW4bd-212">
          <mxGeometry x="23" y="0.5" width="16" height="3" as="geometry" />
        </mxCell>
        <mxCell id="y5vkwGOPZt_xuMyuW4bd-225" value="" style="rounded=1;whiteSpace=wrap;html=1;strokeColor=none;fillColor=#008a00;fontColor=#ffffff;container=0;" vertex="1" parent="y5vkwGOPZt_xuMyuW4bd-212">
          <mxGeometry x="76.5" y="10" width="2" height="3" as="geometry" />
        </mxCell>
        <mxCell id="y5vkwGOPZt_xuMyuW4bd-226" value="" style="rounded=1;whiteSpace=wrap;html=1;strokeColor=none;fillColor=#0050ef;fontColor=#ffffff;container=0;" vertex="1" parent="y5vkwGOPZt_xuMyuW4bd-212">
          <mxGeometry x="76.5" y="2" width="2" height="3" as="geometry" />
        </mxCell>
        <mxCell id="y5vkwGOPZt_xuMyuW4bd-227" value="" style="shape=loopLimit;whiteSpace=wrap;html=1;rounded=0;strokeWidth=1;align=center;verticalAlign=middle;fontFamily=Helvetica;fontSize=12;fontColor=default;resizable=1;fillColor=#111111;strokeColor=none;rotation=90;size=4;container=0;" vertex="1" parent="y5vkwGOPZt_xuMyuW4bd-212">
          <mxGeometry x="-2.5" y="2.5" width="15" height="10" as="geometry" />
        </mxCell>
        <mxCell id="y5vkwGOPZt_xuMyuW4bd-228" value="" style="shape=hexagon;perimeter=hexagonPerimeter2;whiteSpace=wrap;html=1;fixedSize=1;rounded=0;strokeWidth=1;align=center;verticalAlign=middle;fontFamily=Helvetica;fontSize=12;fontColor=default;resizable=1;fillColor=#111111;strokeColor=none;size=3.8021390374331503;container=0;" vertex="1" parent="y5vkwGOPZt_xuMyuW4bd-212">
          <mxGeometry x="49" y="4.5" width="16" height="6" as="geometry" />
        </mxCell>
        <mxCell id="y5vkwGOPZt_xuMyuW4bd-229" value="" style="shape=trapezoid;perimeter=trapezoidPerimeter;whiteSpace=wrap;html=1;fixedSize=1;rounded=0;strokeWidth=1;align=center;verticalAlign=middle;fontFamily=Helvetica;fontSize=12;fontColor=default;resizable=1;fillColor=#111111;strokeColor=none;size=3.799999999999997;container=0;" vertex="1" parent="y5vkwGOPZt_xuMyuW4bd-212">
          <mxGeometry x="49" y="11.5" width="16" height="3" as="geometry" />
        </mxCell>
        <mxCell id="y5vkwGOPZt_xuMyuW4bd-230" value="" style="shape=trapezoid;perimeter=trapezoidPerimeter;whiteSpace=wrap;html=1;fixedSize=1;rounded=0;strokeWidth=1;align=center;verticalAlign=middle;fontFamily=Helvetica;fontSize=12;fontColor=default;resizable=1;fillColor=#111111;strokeColor=none;size=3.799999999999997;flipV=1;container=0;" vertex="1" parent="y5vkwGOPZt_xuMyuW4bd-212">
          <mxGeometry x="49" y="0.5" width="16" height="3" as="geometry" />
        </mxCell>
        <mxCell id="y5vkwGOPZt_xuMyuW4bd-231" value="" style="whiteSpace=wrap;html=1;rounded=0;strokeWidth=1;align=center;verticalAlign=middle;fontFamily=Helvetica;fontSize=12;fontColor=default;resizable=1;fillColor=#222222;strokeColor=none;container=0;" vertex="1" parent="y5vkwGOPZt_xuMyuW4bd-212">
          <mxGeometry x="11" width="60.5" height="1" as="geometry" />
        </mxCell>
        <mxCell id="y5vkwGOPZt_xuMyuW4bd-232" value="" style="whiteSpace=wrap;html=1;rounded=0;strokeWidth=1;align=center;verticalAlign=middle;fontFamily=Helvetica;fontSize=12;fontColor=default;resizable=1;fillColor=#222222;strokeColor=none;container=0;" vertex="1" parent="y5vkwGOPZt_xuMyuW4bd-212">
          <mxGeometry x="14" y="14" width="58.5" height="1" as="geometry" />
        </mxCell>
        <mxCell id="y5vkwGOPZt_xuMyuW4bd-233" value="" style="triangle;whiteSpace=wrap;html=1;rounded=0;strokeWidth=0.01;align=center;verticalAlign=middle;fontFamily=Helvetica;fontSize=12;fontColor=default;resizable=1;fillColor=#111111;strokeColor=none;direction=west;container=0;rotation=0;" vertex="1" parent="y5vkwGOPZt_xuMyuW4bd-212">
          <mxGeometry x="62.2" y="1" width="3.8" height="6" as="geometry" />
        </mxCell>
        <mxCell id="y5vkwGOPZt_xuMyuW4bd-234" value="" style="triangle;whiteSpace=wrap;html=1;rounded=0;strokeWidth=0.01;align=center;verticalAlign=middle;fontFamily=Helvetica;fontSize=12;fontColor=default;resizable=1;fillColor=#111111;strokeColor=none;direction=west;container=0;rotation=0;" vertex="1" parent="y5vkwGOPZt_xuMyuW4bd-212">
          <mxGeometry x="62.2" y="8" width="3.8" height="6" as="geometry" />
        </mxCell>
      </root>
    </mxGraphModel>
  </diagram>
</mxfile>
